<svg width="34" height="34" viewBox="0 0 34 34" fill="none" xmlns="http://www.w3.org/2000/svg">
<g clip-path="url(#clip0_63_3019)">
<mask id="mask0_63_3019" style="mask-type:luminance" maskUnits="userSpaceOnUse" x="0" y="0" width="34" height="34">
<path fill-rule="evenodd" clip-rule="evenodd" d="M34 10.589C34 10.1854 34.0002 9.78169 33.9977 9.37802C33.9957 9.03798 33.9917 8.69803 33.9825 8.35815C33.9625 7.61737 33.9188 6.87024 33.7871 6.13772C33.6535 5.39463 33.4353 4.70304 33.0914 4.02787C32.7534 3.36425 32.3119 2.757 31.7851 2.23054C31.2584 1.70408 30.6509 1.26282 29.9871 0.925011C29.3112 0.581093 28.6189 0.362982 27.875 0.229417C27.1424 0.0978734 26.395 0.0542595 25.6543 0.0342474C25.3141 0.025046 24.974 0.0211674 24.6338 0.019063C24.2299 0.0165873 23.8261 0.0167936 23.4222 0.0167936L18.7329 0H15.2256L10.6193 0.0167936C10.2146 0.0167936 9.80996 0.0165873 9.4053 0.019063C9.0644 0.0211674 8.72366 0.025046 8.38288 0.0342474C7.64037 0.0542595 6.89134 0.0979147 6.15701 0.229623C5.41211 0.363147 4.71874 0.581175 4.04197 0.924846C3.3767 1.2627 2.76797 1.704 2.24015 2.23054C1.71241 2.75696 1.27004 3.36409 0.931403 4.02758C0.586619 4.70308 0.368014 5.39509 0.234078 6.13859C0.102206 6.87082 0.0585093 7.6177 0.0384148 8.35815C0.0292546 8.69807 0.0252935 9.03802 0.0232304 9.37802C0.0207547 9.78173 0 10.2832 0 10.6869L0.000123785 15.2294L0 18.7742L0.020961 23.4132C0.020961 23.8174 0.020796 24.2217 0.0232304 24.6259C0.0252935 24.9663 0.0292546 25.3068 0.038456 25.6471C0.0585093 26.3889 0.102288 27.1371 0.234285 27.8706C0.368179 28.6147 0.586743 29.3072 0.931238 29.9833C1.26992 30.6478 1.71237 31.2559 2.24015 31.7831C2.76793 32.3103 3.3765 32.7521 4.04164 33.0904C4.71883 33.4348 5.41252 33.6532 6.15787 33.7869C6.89188 33.9187 7.64066 33.9624 8.38288 33.9824C8.72366 33.9916 9.06444 33.9955 9.40534 33.9976C9.81 34 10.2146 33.9999 10.6193 33.9999L15.2672 34H18.7832L23.4222 33.9998C23.8261 33.9998 24.2299 34 24.6338 33.9976C24.974 33.9955 25.3141 33.9916 25.6543 33.9824C26.3953 33.9623 27.1429 33.9186 27.8758 33.7868C28.6193 33.653 29.3113 33.4347 29.9868 33.0905C30.6508 32.7523 31.2583 32.3104 31.7851 31.7831C32.3118 31.256 32.7533 30.648 33.0913 29.9836C33.4354 29.3072 33.6536 28.6143 33.7873 27.8697C33.9189 27.1365 33.9625 26.3886 33.9825 25.6471C33.9917 25.3067 33.9957 24.9663 33.9977 24.6259C34.0002 24.2217 34 23.8174 34 23.4132C34 23.4132 33.9997 18.8561 33.9997 18.7742V15.2257C33.9997 15.1652 34 10.589 34 10.589Z" fill="white"/>
</mask>
<g mask="url(#mask0_63_3019)">
<rect x="-2.39307" y="-2.55826" width="37.7136" height="37.7136" fill="#101010"/>
<g filter="url(#filter0_ii_63_3019)">
<path fill-rule="evenodd" clip-rule="evenodd" d="M34 10.589C34 10.1854 34.0002 9.78169 33.9977 9.37802C33.9957 9.03798 33.9917 8.69803 33.9825 8.35815C33.9625 7.61737 33.9188 6.87024 33.7871 6.13772C33.6535 5.39463 33.4353 4.70304 33.0914 4.02787C32.7534 3.36425 32.3119 2.757 31.7851 2.23054C31.2584 1.70408 30.6509 1.26282 29.9871 0.925011C29.3112 0.581093 28.6189 0.362982 27.875 0.229417C27.1424 0.0978734 26.395 0.0542595 25.6543 0.0342474C25.3141 0.025046 24.974 0.0211674 24.6338 0.019063C24.2299 0.0165873 23.8261 0.0167936 23.4222 0.0167936L18.7329 0H15.2256L10.6193 0.0167936C10.2146 0.0167936 9.80996 0.0165873 9.4053 0.019063C9.0644 0.0211674 8.72366 0.025046 8.38288 0.0342474C7.64037 0.0542595 6.89134 0.0979147 6.15701 0.229623C5.41211 0.363147 4.71874 0.581175 4.04197 0.924846C3.3767 1.2627 2.76797 1.704 2.24015 2.23054C1.71241 2.75696 1.27004 3.36409 0.931403 4.02758C0.586619 4.70308 0.368014 5.39509 0.234078 6.13859C0.102206 6.87082 0.0585093 7.6177 0.0384148 8.35815C0.0292546 8.69807 0.0252935 9.03802 0.0232304 9.37802C0.0207547 9.78173 0 10.2832 0 10.6869L0.000123785 15.2294L0 18.7742L0.020961 23.4132C0.020961 23.8174 0.020796 24.2217 0.0232304 24.6259C0.0252935 24.9663 0.0292546 25.3068 0.038456 25.6471C0.0585093 26.3889 0.102288 27.1371 0.234285 27.8706C0.368179 28.6147 0.586743 29.3072 0.931238 29.9833C1.26992 30.6478 1.71237 31.2559 2.24015 31.7831C2.76793 32.3103 3.3765 32.7521 4.04164 33.0904C4.71883 33.4348 5.41252 33.6532 6.15787 33.7869C6.89188 33.9187 7.64066 33.9624 8.38288 33.9824C8.72366 33.9916 9.06444 33.9955 9.40534 33.9976C9.81 34 10.2146 33.9999 10.6193 33.9999L15.2672 34H18.7832L23.4222 33.9998C23.8261 33.9998 24.2299 34 24.6338 33.9976C24.974 33.9955 25.3141 33.9916 25.6543 33.9824C26.3953 33.9623 27.1429 33.9186 27.8758 33.7868C28.6193 33.653 29.3113 33.4347 29.9868 33.0905C30.6508 32.7523 31.2583 32.3104 31.7851 31.7831C32.3118 31.256 32.7533 30.648 33.0913 29.9836C33.4354 29.3072 33.6536 28.6143 33.7873 27.8697C33.9189 27.1365 33.9625 26.3886 33.9825 25.6471C33.9917 25.3067 33.9957 24.9663 33.9977 24.6259C34.0002 24.2217 34 23.8174 34 23.4132C34 23.4132 33.9997 18.8561 33.9997 18.7742V15.2257C33.9997 15.1652 34 10.589 34 10.589Z" fill="#04045D"/>
</g>
</g>
<g clip-path="url(#clip1_63_3019)" filter="url(#filter1_dd_63_3019)">
<g filter="url(#filter2_dd_63_3019)">
<path d="M14.8433 19.792H11.0356L10.2577 22.2076C10.2373 22.2997 10.1554 22.3611 10.0633 22.3509H8.13894C8.02635 22.3509 7.99564 22.2894 8.02635 22.1666L11.3222 12.7193C11.3529 12.6169 11.3837 12.5248 11.4246 12.402C11.4655 12.187 11.486 11.9618 11.486 11.7366C11.4758 11.6855 11.5167 11.6343 11.5679 11.6241H11.5986H14.2189C14.2906 11.6241 14.3418 11.6548 14.352 11.7059L18.088 22.1462C18.1187 22.2587 18.088 22.3099 17.9857 22.3099H15.8464C15.7748 22.3202 15.7031 22.269 15.6826 22.1973L14.8433 19.7408V19.792ZM11.6293 17.7551H14.2292C14.1678 17.5402 14.0859 17.2843 13.9938 17.0182C13.9016 16.7418 13.8095 16.445 13.7174 16.1379C13.615 15.8206 13.5229 15.5135 13.4206 15.1962C13.3182 14.8789 13.2261 14.5821 13.1442 14.2853C13.0623 13.9987 12.9907 13.7326 12.919 13.4869H12.8985C12.8064 13.927 12.6938 14.3672 12.5505 14.8073C12.397 15.2986 12.2434 15.8104 12.0797 16.3221C11.9466 16.8442 11.7828 17.3252 11.6293 17.7551Z" fill="url(#paint0_linear_63_3019)"/>
</g>
<path d="M24.1166 18.8706H20.8719C20.9128 19.1879 21.0152 19.5052 21.1892 19.7816C21.3734 20.058 21.6293 20.2729 21.9364 20.3957C22.3458 20.5697 22.7962 20.6619 23.2465 20.6516C23.6048 20.6414 23.963 20.6107 24.311 20.539C24.6284 20.4981 24.9354 20.4162 25.222 20.3036C25.2732 20.2627 25.3039 20.2831 25.3039 20.3855V21.9515C25.3039 21.9925 25.2937 22.0334 25.2834 22.0744C25.263 22.1051 25.2425 22.1255 25.2118 22.146C24.8842 22.2893 24.5465 22.3917 24.1882 22.4531C23.7071 22.5452 23.2261 22.5861 22.7348 22.5759C21.9568 22.5759 21.3018 22.4531 20.7695 22.2177C20.268 22.0027 19.8278 21.6649 19.4798 21.2453C19.1523 20.8461 18.9168 20.3957 18.7735 19.9044C18.6302 19.4234 18.5586 18.9218 18.5586 18.41C18.5586 17.8573 18.6405 17.3148 18.8145 16.7826C18.9783 16.2708 19.2341 15.8 19.5822 15.3803C19.9199 14.9709 20.3396 14.6434 20.8207 14.408C21.3018 14.1725 21.875 14.0907 22.53 14.0907C23.0725 14.0804 23.615 14.1828 24.1166 14.408C24.5362 14.5922 24.9047 14.8686 25.1913 15.2268C25.4574 15.5748 25.6724 15.9638 25.8055 16.3937C25.9385 16.8031 25.9999 17.2227 25.9999 17.6424C25.9999 17.888 25.9897 18.103 25.9795 18.2975C25.959 18.4919 25.9488 18.6352 25.9385 18.7273C25.9283 18.799 25.8669 18.8604 25.7952 18.8604C25.7338 18.8604 25.6212 18.8706 25.4574 18.8809C25.2937 18.9013 25.0992 18.9116 24.8638 18.9116C24.6284 18.9116 24.3827 18.8706 24.1166 18.8706ZM20.8719 17.3763H23.0316C23.2977 17.3763 23.4922 17.3763 23.615 17.366C23.6969 17.3558 23.7788 17.3353 23.8504 17.2841V17.1818C23.8504 17.0487 23.83 16.9259 23.789 16.8031C23.6048 16.2299 23.0623 15.8409 22.4584 15.8614C21.8954 15.8307 21.3632 16.1275 21.097 16.6393C20.9742 16.8747 20.9026 17.1204 20.8719 17.3763Z" fill="url(#paint1_linear_63_3019)"/>
</g>
</g>
<defs>
<filter id="filter0_ii_63_3019" x="0" y="-0.825243" width="34" height="35.4029" filterUnits="userSpaceOnUse" color-interpolation-filters="sRGB">
<feFlood flood-opacity="0" result="BackgroundImageFix"/>
<feBlend mode="normal" in="SourceGraphic" in2="BackgroundImageFix" result="shape"/>
<feColorMatrix in="SourceAlpha" type="matrix" values="0 0 0 0 0 0 0 0 0 0 0 0 0 0 0 0 0 0 127 0" result="hardAlpha"/>
<feOffset dy="-0.825243"/>
<feGaussianBlur stdDeviation="0.825243"/>
<feComposite in2="hardAlpha" operator="arithmetic" k2="-1" k3="1"/>
<feColorMatrix type="matrix" values="0 0 0 0 0 0 0 0 0 0 0 0 0 0 0 0 0 0 0.3 0"/>
<feBlend mode="normal" in2="shape" result="effect1_innerShadow_63_3019"/>
<feColorMatrix in="SourceAlpha" type="matrix" values="0 0 0 0 0 0 0 0 0 0 0 0 0 0 0 0 0 0 127 0" result="hardAlpha"/>
<feOffset dy="0.57767"/>
<feGaussianBlur stdDeviation="1.32039"/>
<feComposite in2="hardAlpha" operator="arithmetic" k2="-1" k3="1"/>
<feColorMatrix type="matrix" values="0 0 0 0 1 0 0 0 0 1 0 0 0 0 1 0 0 0 0.15 0"/>
<feBlend mode="normal" in2="effect1_innerShadow_63_3019" result="effect2_innerShadow_63_3019"/>
</filter>
<filter id="filter1_dd_63_3019" x="6.3531" y="10.3775" width="21.3089" height="14.2774" filterUnits="userSpaceOnUse" color-interpolation-filters="sRGB">
<feFlood flood-opacity="0" result="BackgroundImageFix"/>
<feColorMatrix in="SourceAlpha" type="matrix" values="0 0 0 0 0 0 0 0 0 0 0 0 0 0 0 0 0 0 127 0" result="hardAlpha"/>
<feMorphology radius="0.41551" operator="dilate" in="SourceAlpha" result="effect1_dropShadow_63_3019"/>
<feOffset dy="0.41551"/>
<feGaussianBlur stdDeviation="0.623265"/>
<feColorMatrix type="matrix" values="0 0 0 0 0 0 0 0 0 0 0 0 0 0 0 0 0 0 0.15 0"/>
<feBlend mode="normal" in2="BackgroundImageFix" result="effect1_dropShadow_63_3019"/>
<feColorMatrix in="SourceAlpha" type="matrix" values="0 0 0 0 0 0 0 0 0 0 0 0 0 0 0 0 0 0 127 0" result="hardAlpha"/>
<feOffset dy="0.41551"/>
<feGaussianBlur stdDeviation="0.41551"/>
<feColorMatrix type="matrix" values="0 0 0 0 0 0 0 0 0 0 0 0 0 0 0 0 0 0 0.3 0"/>
<feBlend mode="normal" in2="effect1_dropShadow_63_3019" result="effect2_dropShadow_63_3019"/>
<feBlend mode="normal" in="SourceGraphic" in2="effect2_dropShadow_63_3019" result="shape"/>
</filter>
<filter id="filter2_dd_63_3019" x="6.3531" y="10.3775" width="13.4086" height="14.052" filterUnits="userSpaceOnUse" color-interpolation-filters="sRGB">
<feFlood flood-opacity="0" result="BackgroundImageFix"/>
<feColorMatrix in="SourceAlpha" type="matrix" values="0 0 0 0 0 0 0 0 0 0 0 0 0 0 0 0 0 0 127 0" result="hardAlpha"/>
<feMorphology radius="0.41551" operator="dilate" in="SourceAlpha" result="effect1_dropShadow_63_3019"/>
<feOffset dy="0.41551"/>
<feGaussianBlur stdDeviation="0.623265"/>
<feColorMatrix type="matrix" values="0 0 0 0 0 0 0 0 0 0 0 0 0 0 0 0 0 0 0.15 0"/>
<feBlend mode="normal" in2="BackgroundImageFix" result="effect1_dropShadow_63_3019"/>
<feColorMatrix in="SourceAlpha" type="matrix" values="0 0 0 0 0 0 0 0 0 0 0 0 0 0 0 0 0 0 127 0" result="hardAlpha"/>
<feOffset dy="0.41551"/>
<feGaussianBlur stdDeviation="0.41551"/>
<feColorMatrix type="matrix" values="0 0 0 0 0 0 0 0 0 0 0 0 0 0 0 0 0 0 0.3 0"/>
<feBlend mode="normal" in2="effect1_dropShadow_63_3019" result="effect2_dropShadow_63_3019"/>
<feBlend mode="normal" in="SourceGraphic" in2="effect2_dropShadow_63_3019" result="shape"/>
</filter>
<linearGradient id="paint0_linear_63_3019" x1="13.0573" y1="11.6241" x2="13.0573" y2="22.352" gradientUnits="userSpaceOnUse">
<stop stop-color="#C2C2FF"/>
<stop offset="1" stop-color="#9494FF"/>
</linearGradient>
<linearGradient id="paint1_linear_63_3019" x1="22.2793" y1="14.09" x2="22.2793" y2="22.5774" gradientUnits="userSpaceOnUse">
<stop stop-color="#C2C2FF"/>
<stop offset="1" stop-color="#9494FF"/>
</linearGradient>
<clipPath id="clip0_63_3019">
<rect width="34" height="34" rx="17" fill="white"/>
</clipPath>
<clipPath id="clip1_63_3019">
<rect width="17.9846" height="10.9534" fill="white" transform="translate(8.01514 11.6241)"/>
</clipPath>
</defs>
</svg>
