<svg width="46" height="46" viewBox="0 0 46 46" fill="none" xmlns="http://www.w3.org/2000/svg">
<g clip-path="url(#clip0_63_3027)">
<mask id="mask0_63_3027" style="mask-type:luminance" maskUnits="userSpaceOnUse" x="0" y="0" width="46" height="46">
<path fill-rule="evenodd" clip-rule="evenodd" d="M46 14.3263C46 13.7802 46.0002 13.2341 45.9969 12.6879C45.9941 12.2279 45.9888 11.7679 45.9763 11.3081C45.9493 10.3059 45.8902 9.29504 45.7119 8.30398C45.5312 7.29862 45.236 6.36294 44.7708 5.44947C44.3135 4.55164 43.7161 3.73006 43.0033 3.01779C42.2907 2.30552 41.4689 1.70853 40.5707 1.25149C39.6563 0.786184 38.7197 0.491093 37.7132 0.310387C36.722 0.132417 35.7109 0.0734099 34.7087 0.0463348C34.2485 0.0338858 33.7884 0.0286382 33.3281 0.0257912C32.7817 0.0224417 32.2353 0.0227208 31.6889 0.0227208L25.3445 0H20.5994L14.3672 0.0227208C13.8198 0.0227208 13.2723 0.0224417 12.7248 0.0257912C12.2636 0.0286382 11.8026 0.0338858 11.3415 0.0463348C10.337 0.0734099 9.32358 0.132473 8.33007 0.310666C7.32226 0.491316 6.38418 0.786296 5.46854 1.25126C4.56848 1.70836 3.7449 2.30541 3.03079 3.01779C2.31679 3.73001 1.71829 4.55142 1.26013 5.44908C0.793662 6.36299 0.497902 7.29924 0.316694 8.30515C0.138278 9.29582 0.0791596 10.3063 0.0519729 11.3081C0.0395798 11.768 0.0342206 12.2279 0.0314294 12.6879C0.0280799 13.2341 0 13.9125 0 14.4587L0.000167474 20.6045L0 25.4004L0.028359 31.6767C0.028359 32.2236 0.0281357 32.7705 0.0314294 33.3173C0.0342206 33.778 0.0395798 34.2386 0.0520287 34.6991C0.0791596 35.7026 0.13839 36.7148 0.316973 37.7072C0.498125 38.7139 0.793829 39.651 1.25991 40.5656C1.71812 41.4647 2.31673 42.2874 3.03079 43.0006C3.74484 43.7139 4.5682 44.3117 5.4681 44.7694C6.38429 45.2353 7.32282 45.5308 8.33124 45.7117C9.32431 45.89 10.3374 45.9491 11.3415 45.9762C11.8026 45.9886 12.2637 45.9939 12.7249 45.9967C13.2724 46.0001 13.8198 45.9998 14.3672 45.9998L20.6557 46H25.4126L31.6889 45.9998C32.2353 45.9998 32.7817 46.0001 33.3281 45.9967C33.7884 45.9939 34.2485 45.9886 34.7087 45.9762C35.7113 45.949 36.7227 45.8899 37.7144 45.7115C38.7202 45.5306 39.6565 45.2352 40.5704 44.7696C41.4687 44.3119 42.2907 43.714 43.0033 43.0006C43.716 42.2875 44.3133 41.4649 44.7706 40.566C45.2361 39.6509 45.5313 38.7134 45.7122 37.7061C45.8902 36.7141 45.9493 35.7022 45.9764 34.6991C45.9888 34.2385 45.9941 33.7779 45.9969 33.3173C46.0003 32.7705 46 32.2236 46 31.6767C46 31.6767 45.9997 25.5112 45.9997 25.4004V20.5994C45.9997 20.5176 46 14.3263 46 14.3263Z" fill="white"/>
</mask>
<g mask="url(#mask0_63_3027)">
<rect x="-3.23779" y="-3.46117" width="51.0243" height="51.0243" fill="#101010"/>
<g filter="url(#filter0_ii_63_3027)">
<path fill-rule="evenodd" clip-rule="evenodd" d="M46 14.3263C46 13.7802 46.0002 13.2341 45.9969 12.6879C45.9941 12.2279 45.9888 11.7679 45.9763 11.3081C45.9493 10.3059 45.8902 9.29504 45.7119 8.30398C45.5312 7.29862 45.236 6.36294 44.7708 5.44947C44.3135 4.55164 43.7161 3.73006 43.0033 3.01779C42.2907 2.30552 41.4689 1.70853 40.5707 1.25149C39.6563 0.786184 38.7197 0.491093 37.7132 0.310387C36.722 0.132417 35.7109 0.0734099 34.7087 0.0463348C34.2485 0.0338858 33.7884 0.0286382 33.3281 0.0257912C32.7817 0.0224417 32.2353 0.0227208 31.6889 0.0227208L25.3445 0H20.5994L14.3672 0.0227208C13.8198 0.0227208 13.2723 0.0224417 12.7248 0.0257912C12.2636 0.0286382 11.8026 0.0338858 11.3415 0.0463348C10.337 0.0734099 9.32358 0.132473 8.33007 0.310666C7.32226 0.491316 6.38418 0.786296 5.46854 1.25126C4.56848 1.70836 3.7449 2.30541 3.03079 3.01779C2.31679 3.73001 1.71829 4.55142 1.26013 5.44908C0.793662 6.36299 0.497902 7.29924 0.316694 8.30515C0.138278 9.29582 0.0791596 10.3063 0.0519729 11.3081C0.0395798 11.768 0.0342206 12.2279 0.0314294 12.6879C0.0280799 13.2341 0 13.9125 0 14.4587L0.000167474 20.6045L0 25.4004L0.028359 31.6767C0.028359 32.2236 0.0281357 32.7705 0.0314294 33.3173C0.0342206 33.778 0.0395798 34.2386 0.0520287 34.6991C0.0791596 35.7026 0.13839 36.7148 0.316973 37.7072C0.498125 38.7139 0.793829 39.651 1.25991 40.5656C1.71812 41.4647 2.31673 42.2874 3.03079 43.0006C3.74484 43.7139 4.5682 44.3117 5.4681 44.7694C6.38429 45.2353 7.32282 45.5308 8.33124 45.7117C9.32431 45.89 10.3374 45.9491 11.3415 45.9762C11.8026 45.9886 12.2637 45.9939 12.7249 45.9967C13.2724 46.0001 13.8198 45.9998 14.3672 45.9998L20.6557 46H25.4126L31.6889 45.9998C32.2353 45.9998 32.7817 46.0001 33.3281 45.9967C33.7884 45.9939 34.2485 45.9886 34.7087 45.9762C35.7113 45.949 36.7227 45.8899 37.7144 45.7115C38.7202 45.5306 39.6565 45.2352 40.5704 44.7696C41.4687 44.3119 42.2907 43.714 43.0033 43.0006C43.716 42.2875 44.3133 41.4649 44.7706 40.566C45.2361 39.6509 45.5313 38.7134 45.7122 37.7061C45.8902 36.7141 45.9493 35.7022 45.9764 34.6991C45.9888 34.2385 45.9941 33.7779 45.9969 33.3173C46.0003 32.7705 46 32.2236 46 31.6767C46 31.6767 45.9997 25.5112 45.9997 25.4004V20.5994C45.9997 20.5176 46 14.3263 46 14.3263Z" fill="#360404"/>
</g>
<g filter="url(#filter1_dd_63_3027)">
<path d="M23.8327 27.3262H17.7571L16.5158 31.1643C16.4832 31.3113 16.3525 31.4093 16.2055 31.3929H13.135C12.9554 31.3929 12.9064 31.295 12.9554 31.099L18.2144 15.959C18.2634 15.7956 18.3124 15.616 18.3777 15.42C18.443 15.077 18.4757 14.7177 18.4757 14.3584C18.4594 14.2767 18.5247 14.1951 18.6064 14.1788H22.8364C22.9671 14.1788 23.0324 14.2277 23.0487 14.3094L29.01 31.1316C29.059 31.3113 29.01 31.3929 28.8467 31.3929H25.4332C25.3189 31.4093 25.2046 31.3276 25.1719 31.2133L23.8327 27.3262ZM18.7043 24.0108H22.8527C22.7547 23.6678 22.6241 23.2595 22.4771 22.8348C22.3301 22.3939 22.1831 21.9202 22.0361 21.4303C21.8728 20.924 21.7258 20.434 21.5625 19.9277C21.3992 19.4214 21.2522 18.9478 21.1215 18.4741C20.9909 18.0168 20.8765 17.5922 20.7622 17.2002H20.7295C20.5826 17.9025 20.4029 18.6048 20.1742 19.3071C19.9293 20.091 19.6843 20.9076 19.423 21.7243C19.1943 22.5572 18.9493 23.3248 18.7043 24.0108ZM32.6521 17.0369C32.1131 17.0532 31.5905 16.8409 31.1985 16.4653C30.8229 16.057 30.6269 15.518 30.6432 14.9627C30.6269 14.4074 30.8392 13.8848 31.2312 13.5091C31.6232 13.1335 32.1458 12.9375 32.6848 12.9375C33.3217 12.9375 33.8117 13.1335 34.171 13.5091C34.5303 13.9011 34.7263 14.4237 34.71 14.9627C34.7263 15.518 34.5303 16.057 34.1383 16.4653C33.7627 16.8572 33.2074 17.0696 32.6521 17.0369ZM30.8229 31.2133V18.6375C30.8229 18.4741 30.8882 18.4088 31.0352 18.4088H34.269C34.416 18.4088 34.4813 18.4905 34.4813 18.6375V31.2133C34.4813 31.3929 34.416 31.4746 34.269 31.4746H31.0679C30.9045 31.4746 30.8229 31.3766 30.8229 31.2133Z" fill="url(#paint0_linear_63_3027)"/>
</g>
</g>
</g>
<defs>
<filter id="filter0_ii_63_3027" x="0" y="-1.1165" width="46" height="47.8981" filterUnits="userSpaceOnUse" color-interpolation-filters="sRGB">
<feFlood flood-opacity="0" result="BackgroundImageFix"/>
<feBlend mode="normal" in="SourceGraphic" in2="BackgroundImageFix" result="shape"/>
<feColorMatrix in="SourceAlpha" type="matrix" values="0 0 0 0 0 0 0 0 0 0 0 0 0 0 0 0 0 0 127 0" result="hardAlpha"/>
<feOffset dy="-1.1165"/>
<feGaussianBlur stdDeviation="1.1165"/>
<feComposite in2="hardAlpha" operator="arithmetic" k2="-1" k3="1"/>
<feColorMatrix type="matrix" values="0 0 0 0 0 0 0 0 0 0 0 0 0 0 0 0 0 0 0.3 0"/>
<feBlend mode="normal" in2="shape" result="effect1_innerShadow_63_3027"/>
<feColorMatrix in="SourceAlpha" type="matrix" values="0 0 0 0 0 0 0 0 0 0 0 0 0 0 0 0 0 0 127 0" result="hardAlpha"/>
<feOffset dy="0.781553"/>
<feGaussianBlur stdDeviation="1.78641"/>
<feComposite in2="hardAlpha" operator="arithmetic" k2="-1" k3="1"/>
<feColorMatrix type="matrix" values="0 0 0 0 1 0 0 0 0 1 0 0 0 0 1 0 0 0 0.15 0"/>
<feBlend mode="normal" in2="effect1_innerShadow_63_3027" result="effect2_innerShadow_63_3027"/>
</filter>
<filter id="filter1_dd_63_3027" x="10.9252" y="11.4283" width="25.7981" height="22.5618" filterUnits="userSpaceOnUse" color-interpolation-filters="sRGB">
<feFlood flood-opacity="0" result="BackgroundImageFix"/>
<feColorMatrix in="SourceAlpha" type="matrix" values="0 0 0 0 0 0 0 0 0 0 0 0 0 0 0 0 0 0 127 0" result="hardAlpha"/>
<feMorphology radius="0.503082" operator="dilate" in="SourceAlpha" result="effect1_dropShadow_63_3027"/>
<feOffset dy="0.503082"/>
<feGaussianBlur stdDeviation="0.754623"/>
<feColorMatrix type="matrix" values="0 0 0 0 0 0 0 0 0 0 0 0 0 0 0 0 0 0 0.15 0"/>
<feBlend mode="normal" in2="BackgroundImageFix" result="effect1_dropShadow_63_3027"/>
<feColorMatrix in="SourceAlpha" type="matrix" values="0 0 0 0 0 0 0 0 0 0 0 0 0 0 0 0 0 0 127 0" result="hardAlpha"/>
<feOffset dy="0.503082"/>
<feGaussianBlur stdDeviation="0.503082"/>
<feColorMatrix type="matrix" values="0 0 0 0 0 0 0 0 0 0 0 0 0 0 0 0 0 0 0.3 0"/>
<feBlend mode="normal" in2="effect1_dropShadow_63_3027" result="effect2_dropShadow_63_3027"/>
<feBlend mode="normal" in="SourceGraphic" in2="effect2_dropShadow_63_3027" result="shape"/>
</filter>
<linearGradient id="paint0_linear_63_3027" x1="23.8242" y1="12.9375" x2="23.8242" y2="31.4746" gradientUnits="userSpaceOnUse">
<stop stop-color="#FF9C05"/>
<stop offset="1" stop-color="#B36C00"/>
</linearGradient>
<clipPath id="clip0_63_3027">
<rect width="46" height="46" rx="23" fill="white"/>
</clipPath>
</defs>
</svg>
