<svg width="48" height="48" viewBox="0 0 48 48" fill="none" xmlns="http://www.w3.org/2000/svg">
<g clip-path="url(#clip0_63_3038)">
<mask id="mask0_63_3038" style="mask-type:luminance" maskUnits="userSpaceOnUse" x="0" y="0" width="48" height="48">
<path fill-rule="evenodd" clip-rule="evenodd" d="M48 14.9492C48 14.3793 48.0002 13.8094 47.9967 13.2396C47.9939 12.7595 47.9883 12.2796 47.9753 11.7997C47.9471 10.7539 47.8854 9.69917 47.6994 8.66502C47.5108 7.61595 47.2028 6.63959 46.7173 5.68641C46.2401 4.74954 45.6168 3.89224 44.873 3.149C44.1294 2.40576 43.2719 1.78281 42.3347 1.3059C41.3805 0.820366 40.4031 0.512445 39.3529 0.323882C38.3186 0.138174 37.2636 0.0766017 36.2178 0.0483493C35.7376 0.0353591 35.2574 0.0298834 34.7771 0.0269125C34.207 0.0234174 33.6368 0.0237087 33.0666 0.0237087L26.4464 0H21.495L14.9919 0.0237087C14.4206 0.0237087 13.8494 0.0234174 13.2781 0.0269125C12.7968 0.0298834 12.3158 0.0353591 11.8347 0.0483493C10.7864 0.0766017 9.72896 0.138232 8.69225 0.324174C7.64062 0.512678 6.66176 0.820482 5.70631 1.30567C4.76711 1.78263 3.90772 2.40564 3.16256 3.149C2.41752 3.89218 1.793 4.7493 1.31492 5.686C0.828169 6.63965 0.51955 7.61659 0.330464 8.66624C0.14429 9.69998 0.0826013 10.7544 0.0542326 11.7997C0.0413007 12.2796 0.0357085 12.7596 0.0327959 13.2396C0.0293008 13.8095 0 14.5174 0 15.0873L0.000174756 21.5003L0 26.5048L0.029592 33.054C0.029592 33.6246 0.029359 34.1953 0.0327959 34.7659C0.0357085 35.2466 0.0413007 35.7272 0.0542909 36.2077C0.0826013 37.2549 0.144407 38.3111 0.330755 39.3467C0.519783 40.3972 0.828343 41.3749 1.31469 42.3293C1.79282 43.2675 2.41746 44.1259 3.16256 44.8702C3.90766 45.6145 4.76682 46.2383 5.70584 46.7159C6.66187 47.2021 7.64121 47.5104 8.69347 47.6992C9.72971 47.8852 10.7868 47.9469 11.8347 47.9751C12.3158 47.9881 12.7969 47.9936 13.2781 47.9966C13.8494 48.0001 14.4206 47.9998 14.9919 47.9998L21.5538 48H26.5175L33.0666 47.9998C33.6368 47.9998 34.207 48.0001 34.7771 47.9966C35.2574 47.9936 35.7376 47.9881 36.2178 47.9751C37.264 47.9468 38.3194 47.8851 39.3541 47.699C40.4037 47.5102 41.3806 47.2019 42.3343 46.7161C43.2717 46.2385 44.1294 45.6146 44.873 44.8702C45.6167 44.1261 46.24 43.2678 46.7172 42.3297C47.2029 41.3749 47.5109 40.3966 47.6996 39.3455C47.8855 38.3103 47.9471 37.2544 47.9754 36.2077C47.9883 35.7271 47.9939 35.2466 47.9967 34.7659C48.0003 34.1953 48 33.6246 48 33.054C48 33.054 47.9996 26.6204 47.9996 26.5048V21.4951C47.9996 21.4097 48 14.9492 48 14.9492Z" fill="white"/>
</mask>
<g mask="url(#mask0_63_3038)">
<rect x="-3.37891" y="-3.61163" width="53.2427" height="53.2427" fill="#101010"/>
<g filter="url(#filter0_ii_63_3038)">
<path fill-rule="evenodd" clip-rule="evenodd" d="M48 14.9492C48 14.3793 48.0002 13.8094 47.9967 13.2396C47.9939 12.7595 47.9883 12.2796 47.9753 11.7997C47.9471 10.7539 47.8854 9.69917 47.6994 8.66502C47.5108 7.61595 47.2028 6.63959 46.7173 5.68641C46.2401 4.74954 45.6168 3.89224 44.873 3.149C44.1294 2.40576 43.2719 1.78281 42.3347 1.3059C41.3805 0.820366 40.4031 0.512445 39.3529 0.323882C38.3186 0.138174 37.2636 0.0766017 36.2178 0.0483493C35.7376 0.0353591 35.2574 0.0298834 34.7771 0.0269125C34.207 0.0234174 33.6368 0.0237087 33.0666 0.0237087L26.4464 0H21.495L14.9919 0.0237087C14.4206 0.0237087 13.8494 0.0234174 13.2781 0.0269125C12.7968 0.0298834 12.3158 0.0353591 11.8347 0.0483493C10.7864 0.0766017 9.72896 0.138232 8.69225 0.324174C7.64062 0.512678 6.66176 0.820482 5.70631 1.30567C4.76711 1.78263 3.90772 2.40564 3.16256 3.149C2.41752 3.89218 1.793 4.7493 1.31492 5.686C0.828169 6.63965 0.51955 7.61659 0.330464 8.66624C0.14429 9.69998 0.0826013 10.7544 0.0542326 11.7997C0.0413007 12.2796 0.0357085 12.7596 0.0327959 13.2396C0.0293008 13.8095 0 14.5174 0 15.0873L0.000174756 21.5003L0 26.5048L0.029592 33.054C0.029592 33.6246 0.029359 34.1953 0.0327959 34.7659C0.0357085 35.2466 0.0413007 35.7272 0.0542909 36.2077C0.0826013 37.2549 0.144407 38.3111 0.330755 39.3467C0.519783 40.3972 0.828343 41.3749 1.31469 42.3293C1.79282 43.2675 2.41746 44.1259 3.16256 44.8702C3.90766 45.6145 4.76682 46.2383 5.70584 46.7159C6.66187 47.2021 7.64121 47.5104 8.69347 47.6992C9.72971 47.8852 10.7868 47.9469 11.8347 47.9751C12.3158 47.9881 12.7969 47.9936 13.2781 47.9966C13.8494 48.0001 14.4206 47.9998 14.9919 47.9998L21.5538 48H26.5175L33.0666 47.9998C33.6368 47.9998 34.207 48.0001 34.7771 47.9966C35.2574 47.9936 35.7376 47.9881 36.2178 47.9751C37.264 47.9468 38.3194 47.8851 39.3541 47.699C40.4037 47.5102 41.3806 47.2019 42.3343 46.7161C43.2717 46.2385 44.1294 45.6146 44.873 44.8702C45.6167 44.1261 46.24 43.2678 46.7172 42.3297C47.2029 41.3749 47.5109 40.3966 47.6996 39.3455C47.8855 38.3103 47.9471 37.2544 47.9754 36.2077C47.9883 35.7271 47.9939 35.2466 47.9967 34.7659C48.0003 34.1953 48 33.6246 48 33.054C48 33.054 47.9996 26.6204 47.9996 26.5048V21.4951C47.9996 21.4097 48 14.9492 48 14.9492Z" fill="url(#paint0_linear_63_3038)" fill-opacity="0.01"/>
</g>
<path d="M24.5044 20.2049C24.5005 20.2359 24.5005 20.2711 24.5005 20.3056C24.5005 20.4399 24.5273 20.5691 24.5757 20.6879L24.619 20.777L24.7901 21.2147L25.6789 23.482L26.454 25.462C26.6751 25.8617 27.0293 26.1755 27.4564 26.3427L27.5891 26.3915C27.5943 26.3931 27.603 26.3931 27.6101 26.395L29.7347 27.1256V27.1272L30.5469 27.4061L30.6025 27.4249C30.6044 27.4249 30.6076 27.4268 30.6096 27.4268C30.7697 27.4672 30.9266 27.5214 31.0764 27.5876C31.4228 27.7371 31.7369 27.9501 32.0052 28.21C32.1134 28.3133 32.2128 28.4247 32.3048 28.5435C32.3831 28.6432 32.4547 28.7481 32.5192 28.8573C32.8026 29.328 32.9653 29.8813 32.9653 30.4705C32.9653 30.5758 32.9602 30.6775 32.9495 30.7808C32.946 30.8263 32.9405 30.8702 32.9337 30.9138V30.9173C32.9266 30.9635 32.9179 31.0113 32.9091 31.0581C32.9001 31.1036 32.8917 31.1488 32.8814 31.194C32.8798 31.1992 32.8778 31.2047 32.8759 31.2098C32.8662 31.2557 32.8539 31.3009 32.8414 31.3464C32.8301 31.3893 32.8158 31.4336 32.8 31.4752C32.7861 31.5208 32.7698 31.5656 32.7513 31.6095C32.7355 31.6547 32.7167 31.7005 32.6958 31.7438C32.6383 31.8765 32.5698 32.004 32.493 32.1257C32.394 32.2856 32.2808 32.4363 32.155 32.5761C33.1519 31.5043 33.8147 30.1202 33.9797 28.5887C34.0074 28.3375 34.0217 28.0828 34.0217 27.8265C34.0217 27.6628 34.0145 27.5007 34.0039 27.338C33.8783 25.5014 33.0422 23.8588 31.766 22.6866C31.4141 22.3608 31.0296 22.0709 30.616 21.8249L29.8348 21.4256L25.8758 19.3939C25.7541 19.3417 25.623 19.3149 25.4906 19.3152C24.978 19.3152 24.5547 19.7061 24.5044 20.2049Z" fill="#7F7F7F"/>
<path d="M24.5044 20.2049C24.5005 20.2359 24.5005 20.2711 24.5005 20.3056C24.5005 20.4399 24.5273 20.5691 24.5757 20.6879L24.619 20.777L24.7901 21.2147L25.6789 23.482L26.454 25.462C26.6751 25.8617 27.0293 26.1755 27.4564 26.3427L27.5891 26.3915C27.5943 26.3931 27.603 26.3931 27.6101 26.395L29.7347 27.1256V27.1272L30.5469 27.4061L30.6025 27.4249C30.6044 27.4249 30.6076 27.4268 30.6096 27.4268C30.7697 27.4672 30.9266 27.5214 31.0764 27.5876C31.4228 27.7371 31.7369 27.9501 32.0052 28.21C32.1134 28.3133 32.2128 28.4247 32.3048 28.5435C32.3831 28.6432 32.4547 28.7481 32.5192 28.8573C32.8026 29.328 32.9653 29.8813 32.9653 30.4705C32.9653 30.5758 32.9602 30.6775 32.9495 30.7808C32.946 30.8263 32.9405 30.8702 32.9337 30.9138V30.9173C32.9266 30.9635 32.9179 31.0113 32.9091 31.0581C32.9001 31.1036 32.8917 31.1488 32.8814 31.194C32.8798 31.1992 32.8778 31.2047 32.8759 31.2098C32.8662 31.2557 32.8539 31.3009 32.8414 31.3464C32.8301 31.3893 32.8158 31.4336 32.8 31.4752C32.7861 31.5208 32.7698 31.5656 32.7513 31.6095C32.7355 31.6547 32.7167 31.7005 32.6958 31.7438C32.6383 31.8765 32.5698 32.004 32.493 32.1257C32.394 32.2856 32.2808 32.4363 32.155 32.5761C33.1519 31.5043 33.8147 30.1202 33.9797 28.5887C34.0074 28.3375 34.0217 28.0828 34.0217 27.8265C34.0217 27.6628 34.0145 27.5007 34.0039 27.338C33.8783 25.5014 33.0422 23.8588 31.766 22.6866C31.4141 22.3608 31.0296 22.0709 30.616 21.8249L29.8348 21.4256L25.8758 19.3939C25.7541 19.3417 25.623 19.3149 25.4906 19.3152C24.978 19.3152 24.5547 19.7061 24.5044 20.2049Z" fill="url(#paint1_linear_63_3038)"/>
<path d="M17.4551 11.25C16.8918 11.26 16.4395 11.721 16.4395 12.2847V30.3333C16.4417 30.4592 16.4488 30.5835 16.4579 30.7098C16.4659 30.7763 16.4746 30.8454 16.4869 30.9125C16.7442 32.3611 18.0046 33.4603 19.5264 33.4603C20.0601 33.4603 20.5605 33.3244 20.9983 33.0881C21.0008 33.0862 21.0054 33.0836 21.0076 33.0836L21.1652 32.9884L21.8037 32.6126L22.616 32.1306L22.6179 16.0942C22.6179 15.0285 22.0846 14.089 21.2682 13.5309C21.2488 13.5192 21.2301 13.507 21.2129 13.4931L18.0524 11.4263C17.8922 11.3204 17.6992 11.2539 17.4922 11.25H17.4551Z" fill="#7F7F7F"/>
<path d="M17.4551 11.25C16.8918 11.26 16.4395 11.721 16.4395 12.2847V30.3333C16.4417 30.4592 16.4488 30.5835 16.4579 30.7098C16.4659 30.7763 16.4746 30.8454 16.4869 30.9125C16.7442 32.3611 18.0046 33.4603 19.5264 33.4603C20.0601 33.4603 20.5605 33.3244 20.9983 33.0881C21.0008 33.0862 21.0054 33.0836 21.0076 33.0836L21.1652 32.9884L21.8037 32.6126L22.616 32.1306L22.6179 16.0942C22.6179 15.0285 22.0846 14.089 21.2682 13.5309C21.2488 13.5192 21.2301 13.507 21.2129 13.4931L18.0524 11.4263C17.8922 11.3204 17.6992 11.2539 17.4922 11.25H17.4551Z" fill="url(#paint2_linear_63_3038)"/>
<path d="M29.9876 27.7387L22.7208 32.046L22.6162 32.1089V32.1319L21.804 32.6129L21.1657 32.9897L21.0092 33.0842L20.9985 33.0894C20.5617 33.3267 20.061 33.461 19.5276 33.461C18.0061 33.461 16.7441 32.3624 16.4878 30.9132C16.6095 31.9734 16.9708 32.9603 17.5157 33.82C18.6379 35.5914 20.5355 36.8237 22.7309 37.0377H24.0732C25.2606 36.9138 26.2521 36.4382 27.2942 35.7961L28.8968 34.816C29.6186 34.3533 31.5779 33.2153 32.1552 32.5767C32.2807 32.437 32.3941 32.2872 32.4932 32.1267C32.57 32.0047 32.6385 31.8771 32.6959 31.7445C32.7153 31.6993 32.7337 31.6554 32.7514 31.6105C32.7682 31.5659 32.7841 31.5211 32.8002 31.4755C32.8302 31.3884 32.8541 31.3009 32.877 31.2108C32.8887 31.1595 32.8993 31.1088 32.91 31.0584C32.9448 30.8683 32.9639 30.673 32.9639 30.4705C32.9639 29.8814 32.8012 29.328 32.5193 28.858C32.4548 28.7482 32.3837 28.6433 32.305 28.5442C32.213 28.4247 32.1135 28.314 32.0054 28.2107C31.7371 27.9508 31.4239 27.7377 31.0766 27.5879C30.9268 27.5217 30.7705 27.4672 30.6097 27.4275C30.6078 27.4275 30.6046 27.4255 30.6026 27.4255L30.5471 27.4068L29.9876 27.7387Z" fill="#7F7F7F"/>
<path d="M29.9876 27.7387L22.7208 32.046L22.6162 32.1089V32.1319L21.804 32.6129L21.1657 32.9897L21.0092 33.0842L20.9985 33.0894C20.5617 33.3267 20.061 33.461 19.5276 33.461C18.0061 33.461 16.7441 32.3624 16.4878 30.9132C16.6095 31.9734 16.9708 32.9603 17.5157 33.82C18.6379 35.5914 20.5355 36.8237 22.7309 37.0377H24.0732C25.2606 36.9138 26.2521 36.4382 27.2942 35.7961L28.8968 34.816C29.6186 34.3533 31.5779 33.2153 32.1552 32.5767C32.2807 32.437 32.3941 32.2872 32.4932 32.1267C32.57 32.0047 32.6385 31.8771 32.6959 31.7445C32.7153 31.6993 32.7337 31.6554 32.7514 31.6105C32.7682 31.5659 32.7841 31.5211 32.8002 31.4755C32.8302 31.3884 32.8541 31.3009 32.877 31.2108C32.8887 31.1595 32.8993 31.1088 32.91 31.0584C32.9448 30.8683 32.9639 30.673 32.9639 30.4705C32.9639 29.8814 32.8012 29.328 32.5193 28.858C32.4548 28.7482 32.3837 28.6433 32.305 28.5442C32.213 28.4247 32.1135 28.314 32.0054 28.2107C31.7371 27.9508 31.4239 27.7377 31.0766 27.5879C30.9268 27.5217 30.7705 27.4672 30.6097 27.4275C30.6078 27.4275 30.6046 27.4255 30.6026 27.4255L30.5471 27.4068L29.9876 27.7387Z" fill="url(#paint3_linear_63_3038)"/>
<path opacity="0.15" d="M32.9639 30.4705C32.9639 30.673 32.9448 30.8686 32.9096 31.0588C32.8993 31.1091 32.8887 31.1595 32.8767 31.2105C32.8541 31.3009 32.8302 31.3884 32.8002 31.4759C32.7844 31.5211 32.7682 31.5663 32.7514 31.6102C32.734 31.6554 32.7153 31.6993 32.6956 31.7445C32.638 31.8767 32.5705 32.0044 32.4935 32.1264C32.3945 32.2863 32.2813 32.4369 32.1552 32.5764C31.5779 33.2153 29.6186 34.3533 28.8968 34.816L27.2942 35.7961C26.1194 36.5199 25.0094 37.0322 23.6096 37.0674C23.5434 37.0694 23.4785 37.071 23.4143 37.071C23.3239 37.071 23.2348 37.0694 23.1454 37.0658C20.7751 36.9754 18.708 35.7018 17.5157 33.82C16.9578 32.9412 16.6064 31.9473 16.4878 30.9132C16.7441 32.3624 18.0061 33.461 19.5276 33.461C20.061 33.461 20.5617 33.3264 20.9985 33.0894L21.0092 33.0839L21.1657 32.9897L21.804 32.6129L22.6162 32.1319V32.1089L22.7208 32.046L29.9876 27.7384L30.5471 27.4068L30.6026 27.4255C30.6042 27.4255 30.6078 27.4275 30.6097 27.4275C30.7705 27.4672 30.9271 27.5217 31.0766 27.5879C31.4239 27.7377 31.7368 27.9508 32.0054 28.2107C32.1135 28.3141 32.2136 28.4256 32.305 28.5442C32.3837 28.6433 32.4548 28.7482 32.5193 28.858C32.8012 29.328 32.9639 29.8814 32.9639 30.4705Z" fill="#7F7F7F"/>
<path opacity="0.15" d="M32.9639 30.4705C32.9639 30.673 32.9448 30.8686 32.9096 31.0588C32.8993 31.1091 32.8887 31.1595 32.8767 31.2105C32.8541 31.3009 32.8302 31.3884 32.8002 31.4759C32.7844 31.5211 32.7682 31.5663 32.7514 31.6102C32.734 31.6554 32.7153 31.6993 32.6956 31.7445C32.638 31.8767 32.5705 32.0044 32.4935 32.1264C32.3945 32.2863 32.2813 32.4369 32.1552 32.5764C31.5779 33.2153 29.6186 34.3533 28.8968 34.816L27.2942 35.7961C26.1194 36.5199 25.0094 37.0322 23.6096 37.0674C23.5434 37.0694 23.4785 37.071 23.4143 37.071C23.3239 37.071 23.2348 37.0694 23.1454 37.0658C20.7751 36.9754 18.708 35.7018 17.5157 33.82C16.9578 32.9412 16.6064 31.9473 16.4878 30.9132C16.7441 32.3624 18.0061 33.461 19.5276 33.461C20.061 33.461 20.5617 33.3264 20.9985 33.0894L21.0092 33.0839L21.1657 32.9897L21.804 32.6129L22.6162 32.1319V32.1089L22.7208 32.046L29.9876 27.7384L30.5471 27.4068L30.6026 27.4255C30.6042 27.4255 30.6078 27.4275 30.6097 27.4275C30.7705 27.4672 30.9271 27.5217 31.0766 27.5879C31.4239 27.7377 31.7368 27.9508 32.0054 28.2107C32.1135 28.3141 32.2136 28.4256 32.305 28.5442C32.3837 28.6433 32.4548 28.7482 32.5193 28.858C32.8012 29.328 32.9639 29.8814 32.9639 30.4705Z" fill="url(#paint4_linear_63_3038)"/>
</g>
</g>
<defs>
<filter id="filter0_ii_63_3038" x="0" y="-1.16505" width="48" height="49.9806" filterUnits="userSpaceOnUse" color-interpolation-filters="sRGB">
<feFlood flood-opacity="0" result="BackgroundImageFix"/>
<feBlend mode="normal" in="SourceGraphic" in2="BackgroundImageFix" result="shape"/>
<feColorMatrix in="SourceAlpha" type="matrix" values="0 0 0 0 0 0 0 0 0 0 0 0 0 0 0 0 0 0 127 0" result="hardAlpha"/>
<feOffset dy="-1.16505"/>
<feGaussianBlur stdDeviation="1.16505"/>
<feComposite in2="hardAlpha" operator="arithmetic" k2="-1" k3="1"/>
<feColorMatrix type="matrix" values="0 0 0 0 0 0 0 0 0 0 0 0 0 0 0 0 0 0 0.3 0"/>
<feBlend mode="normal" in2="shape" result="effect1_innerShadow_63_3038"/>
<feColorMatrix in="SourceAlpha" type="matrix" values="0 0 0 0 0 0 0 0 0 0 0 0 0 0 0 0 0 0 127 0" result="hardAlpha"/>
<feOffset dy="0.815534"/>
<feGaussianBlur stdDeviation="1.86408"/>
<feComposite in2="hardAlpha" operator="arithmetic" k2="-1" k3="1"/>
<feColorMatrix type="matrix" values="0 0 0 0 1 0 0 0 0 1 0 0 0 0 1 0 0 0 0.15 0"/>
<feBlend mode="normal" in2="effect1_innerShadow_63_3038" result="effect2_innerShadow_63_3038"/>
</filter>
<linearGradient id="paint0_linear_63_3038" x1="-16.3771" y1="0" x2="-16.3771" y2="80.7542" gradientUnits="userSpaceOnUse">
<stop stop-color="white"/>
<stop offset="0.489516" stop-color="#EFEFEF"/>
<stop offset="1" stop-color="#C0C0C0"/>
</linearGradient>
<linearGradient id="paint1_linear_63_3038" x1="25.6799" y1="20.4208" x2="33.9341" y2="29.6199" gradientUnits="userSpaceOnUse">
<stop stop-color="#37BDFF"/>
<stop offset="0.25" stop-color="#26C6F4"/>
<stop offset="0.5" stop-color="#15D0E9"/>
<stop offset="0.75" stop-color="#3BD6DF"/>
<stop offset="1" stop-color="#62DCD4"/>
</linearGradient>
<linearGradient id="paint2_linear_63_3038" x1="19.9526" y1="33.07" x2="19.6871" y2="12.6566" gradientUnits="userSpaceOnUse">
<stop stop-color="#1B48EF"/>
<stop offset="0.5" stop-color="#2080F1"/>
<stop offset="1" stop-color="#26B8F4"/>
</linearGradient>
<linearGradient id="paint3_linear_63_3038" x1="24.7258" y1="32.2222" x2="44.7033" y2="32.2222" gradientUnits="userSpaceOnUse">
<stop stop-color="#39D2FF"/>
<stop offset="0.5" stop-color="#248FFA"/>
<stop offset="1" stop-color="#104CF5"/>
</linearGradient>
<linearGradient id="paint4_linear_63_3038" x1="24.7258" y1="32.2222" x2="44.7033" y2="32.2222" gradientUnits="userSpaceOnUse">
<stop stop-color="white"/>
<stop offset="1"/>
</linearGradient>
<clipPath id="clip0_63_3038">
<rect width="48" height="48" rx="24" fill="white"/>
</clipPath>
</defs>
</svg>
