<svg width="51" height="51" viewBox="0 0 51 51" fill="none" xmlns="http://www.w3.org/2000/svg">
<g clip-path="url(#clip0_63_3028)">
<mask id="mask0_63_3028" style="mask-type:luminance" maskUnits="userSpaceOnUse" x="0" y="0" width="51" height="51">
<path fill-rule="evenodd" clip-rule="evenodd" d="M51 15.8835C51 15.278 51.0002 14.6725 50.9965 14.067C50.9935 13.557 50.9876 13.047 50.9738 12.5372C50.9438 11.4261 50.8783 10.3054 50.6806 9.20658C50.4802 8.09195 50.1529 7.05456 49.6372 6.04181C49.1302 5.04638 48.4678 4.1355 47.6776 3.34581C46.8875 2.55612 45.9764 1.89423 44.9806 1.38752C43.9668 0.871639 42.9283 0.544473 41.8124 0.344125C40.7135 0.14681 39.5925 0.0813893 38.4814 0.0513712C37.9712 0.037569 37.461 0.0317511 36.9507 0.0285946C36.3449 0.024881 35.7391 0.0251904 35.1333 0.0251904L28.0993 0H22.8384L15.9289 0.0251904C15.3219 0.0251904 14.7149 0.024881 14.108 0.0285946C13.5966 0.0317511 13.0855 0.037569 12.5743 0.0513712C11.4606 0.0813893 10.337 0.146872 9.23551 0.344434C8.11816 0.54472 7.07812 0.871763 6.06295 1.38727C5.06505 1.89405 4.15195 2.55599 3.36022 3.34581C2.56861 4.13544 1.90506 5.04613 1.3971 6.04137C0.879929 7.05462 0.552021 8.09263 0.351118 9.20788C0.153308 10.3062 0.0877639 11.4266 0.0576221 12.5372C0.043882 13.0471 0.0379403 13.557 0.0348456 14.067C0.0311321 14.6726 0 15.4248 0 16.0303L0.000185678 22.8441L0 28.1613L0.0314415 35.1199C0.0314415 35.7262 0.0311939 36.3325 0.0348456 36.9388C0.0379403 37.4495 0.043882 37.9601 0.057684 38.4707C0.0877639 39.5833 0.153432 40.7056 0.351427 41.8059C0.552269 42.922 0.880115 43.9608 1.39686 44.9749C1.90487 45.9718 2.56855 46.8838 3.36022 47.6746C4.15189 48.4654 5.06474 49.1282 6.06246 49.6356C7.07824 50.1522 8.11878 50.4798 9.23681 50.6804C10.3378 50.878 11.461 50.9436 12.5743 50.9736C13.0855 50.9874 13.5967 50.9933 14.108 50.9963C14.715 51.0001 15.3219 50.9998 15.9289 50.9998L22.9009 51H28.1748L35.1333 50.9997C35.7391 50.9997 36.3449 51.0001 36.9507 50.9963C37.461 50.9933 37.9712 50.9874 38.4814 50.9736C39.593 50.9435 40.7143 50.8779 41.8137 50.6801C42.9289 50.4795 43.9669 50.1521 44.9802 49.6358C45.9762 49.1284 46.8875 48.4655 47.6776 47.6746C48.4677 46.8839 49.13 45.972 49.637 44.9753C50.1531 43.9608 50.4803 42.9214 50.6809 41.8046C50.8783 40.7047 50.9438 39.5828 50.9738 38.4707C50.9876 37.9601 50.9935 37.4495 50.9965 36.9388C51.0003 36.3325 51 35.7262 51 35.1199C51 35.1199 50.9996 28.2842 50.9996 28.1613V22.8385C50.9996 22.7478 51 15.8835 51 15.8835Z" fill="white"/>
</mask>
<g mask="url(#mask0_63_3028)">
<rect x="-3.58984" y="-3.83739" width="56.5704" height="56.5704" fill="#101010"/>
</g>
<g clip-path="url(#clip1_63_3028)" filter="url(#filter0_dd_63_3028)">
<path d="M26.1548 26.9374C26.1548 25.7826 26.6365 24.6751 27.4939 23.8586C28.3512 23.042 29.5141 22.5833 30.7267 22.5833C31.9392 22.5833 33.1021 23.042 33.9595 23.8586C34.8169 24.6751 35.2985 25.7826 35.2985 26.9374C35.2985 28.0922 34.8169 29.1997 33.9595 30.0163C33.1021 30.8328 31.9392 31.2916 30.7267 31.2916C29.5141 31.2916 28.3512 30.8328 27.4939 30.0163C26.6365 29.1997 26.1548 28.0922 26.1548 26.9374Z" fill="url(#paint0_linear_63_3028)"/>
<path d="M17.0127 35.6459C17.0127 34.4911 17.4944 33.3836 18.3518 32.5671C19.2092 31.7505 20.372 31.2918 21.5846 31.2918H26.1564V35.6459C26.1564 36.8007 25.6748 37.9082 24.8174 38.7248C23.96 39.5414 22.7971 40.0001 21.5846 40.0001C20.372 40.0001 19.2092 39.5414 18.3518 38.7248C17.4944 37.9082 17.0127 36.8007 17.0127 35.6459V35.6459Z" fill="url(#paint1_linear_63_3028)"/>
<path d="M26.1548 13.875V22.5833H30.7267C31.9392 22.5833 33.1021 22.1246 33.9595 21.308C34.8169 20.4915 35.2985 19.384 35.2985 18.2292C35.2985 17.0744 34.8169 15.9669 33.9595 15.1503C33.1021 14.3337 31.9392 13.875 30.7267 13.875H26.1548Z" fill="url(#paint2_linear_63_3028)"/>
<path d="M17.0127 18.2292C17.0127 19.384 17.4944 20.4915 18.3518 21.308C19.2092 22.1246 20.372 22.5833 21.5846 22.5833H26.1564V13.875H21.5846C20.372 13.875 19.2092 14.3337 18.3518 15.1503C17.4944 15.9669 17.0127 17.0744 17.0127 18.2292V18.2292Z" fill="url(#paint3_linear_63_3028)"/>
<path d="M17.0127 26.9374C17.0127 28.0922 17.4944 29.1997 18.3518 30.0163C19.2092 30.8328 20.372 31.2916 21.5846 31.2916H26.1564V22.5833H21.5846C20.372 22.5833 19.2092 23.042 18.3518 23.8586C17.4944 24.6751 17.0127 25.7826 17.0127 26.9374V26.9374Z" fill="url(#paint4_linear_63_3028)"/>
</g>
</g>
<defs>
<filter id="filter0_dd_63_3028" x="12.1805" y="10.2509" width="27.9519" height="35.7893" filterUnits="userSpaceOnUse" color-interpolation-filters="sRGB">
<feFlood flood-opacity="0" result="BackgroundImageFix"/>
<feColorMatrix in="SourceAlpha" type="matrix" values="0 0 0 0 0 0 0 0 0 0 0 0 0 0 0 0 0 0 127 0" result="hardAlpha"/>
<feMorphology radius="1.20804" operator="dilate" in="SourceAlpha" result="effect1_dropShadow_63_3028"/>
<feOffset dy="1.20804"/>
<feGaussianBlur stdDeviation="1.81206"/>
<feColorMatrix type="matrix" values="0 0 0 0 0 0 0 0 0 0 0 0 0 0 0 0 0 0 0.15 0"/>
<feBlend mode="normal" in2="BackgroundImageFix" result="effect1_dropShadow_63_3028"/>
<feColorMatrix in="SourceAlpha" type="matrix" values="0 0 0 0 0 0 0 0 0 0 0 0 0 0 0 0 0 0 127 0" result="hardAlpha"/>
<feOffset dy="0.604019"/>
<feGaussianBlur stdDeviation="0.604019"/>
<feColorMatrix type="matrix" values="0 0 0 0 0 0 0 0 0 0 0 0 0 0 0 0 0 0 0.3 0"/>
<feBlend mode="normal" in2="effect1_dropShadow_63_3028" result="effect2_dropShadow_63_3028"/>
<feBlend mode="normal" in="SourceGraphic" in2="effect2_dropShadow_63_3028" result="shape"/>
</filter>
<linearGradient id="paint0_linear_63_3028" x1="30.7267" y1="22.5833" x2="30.7267" y2="31.2916" gradientUnits="userSpaceOnUse">
<stop stop-color="#58CFFF"/>
<stop offset="1" stop-color="#007CD6"/>
</linearGradient>
<linearGradient id="paint1_linear_63_3028" x1="21.5846" y1="31.2918" x2="21.5846" y2="40.0001" gradientUnits="userSpaceOnUse">
<stop stop-color="#0ACF83"/>
<stop offset="1" stop-color="#005534"/>
</linearGradient>
<linearGradient id="paint2_linear_63_3028" x1="30.7267" y1="13.875" x2="30.7267" y2="22.5833" gradientUnits="userSpaceOnUse">
<stop stop-color="#FF7262"/>
<stop offset="1" stop-color="#DE3F2D"/>
</linearGradient>
<linearGradient id="paint3_linear_63_3028" x1="21.5846" y1="13.875" x2="21.5846" y2="22.5833" gradientUnits="userSpaceOnUse">
<stop stop-color="#F24E1E"/>
<stop offset="1" stop-color="#AB2B06"/>
</linearGradient>
<linearGradient id="paint4_linear_63_3028" x1="21.5846" y1="22.5833" x2="21.5846" y2="31.2916" gradientUnits="userSpaceOnUse">
<stop stop-color="#A259FF"/>
<stop offset="1" stop-color="#5E5964"/>
</linearGradient>
<clipPath id="clip0_63_3028">
<rect width="51" height="51" rx="25.5" fill="white"/>
</clipPath>
<clipPath id="clip1_63_3028">
<rect width="18.2875" height="26.125" fill="white" transform="translate(17.0127 13.875)"/>
</clipPath>
</defs>
</svg>
