<svg width="19" height="19" viewBox="0 0 19 19" fill="none" xmlns="http://www.w3.org/2000/svg">
<g clip-path="url(#clip0_1728_3265)">
<path d="M16.3774 3.05762H4.98926V15.9312H16.3774C16.9027 15.9312 17.4065 15.7225 17.7779 15.3511C18.1493 14.9797 18.358 14.4759 18.358 13.9506V5.03817C18.358 4.51289 18.1493 4.00913 17.7779 3.63771C17.4065 3.26628 16.9027 3.05762 16.3774 3.05762ZM11.6736 13.1941C10.6887 13.1941 9.74418 12.8028 9.04775 12.1064C8.35133 11.41 7.96008 10.4654 7.96008 9.48054C7.96008 7.63863 9.3024 6.1141 11.0611 5.82148C10.396 6.12965 9.85618 6.65576 9.53093 7.31266C9.20569 7.96956 9.11458 8.71785 9.27269 9.43361C9.4308 10.1494 9.82866 10.7896 10.4004 11.2484C10.9721 11.7072 11.6833 11.9569 12.4163 11.9562C13.0294 11.9557 13.6296 11.7801 14.1463 11.45C14.6629 11.1199 15.0745 10.6491 15.3327 10.093C15.0401 11.8523 13.5155 13.1941 11.6736 13.1941ZM14.2038 8.03276L13.6032 9.03393L13.5002 7.87085L12.3624 7.60942L13.4368 7.15191L13.3343 5.98883L14.1008 6.86968L15.1752 6.41218L14.5751 7.41384L15.3416 8.29469L14.2038 8.03276Z" fill="#004600"/>
<path d="M2.51375 3.05762C1.98848 3.05762 1.48472 3.26628 1.11329 3.63771C0.741868 4.00913 0.533203 4.51289 0.533203 5.03817L0.533203 13.9506C0.533203 14.4759 0.741868 14.9797 1.11329 15.3511C1.48472 15.7225 1.98848 15.9312 2.51375 15.9312H4.98944V3.05762H2.51375Z" fill="#EEEEEE"/>
<path d="M15.1757 6.41211L14.1012 6.86962L13.3347 5.98877L13.4372 7.15185L12.3628 7.60936L13.5006 7.87079L13.6036 9.03387L14.2042 8.0327L15.342 8.29463L14.5756 7.41378L15.1757 6.41211Z" fill="white"/>
<path d="M12.4167 11.9562C11.6837 11.9568 10.9724 11.7071 10.4007 11.2483C9.82902 10.7896 9.43117 10.1493 9.27306 9.43355C9.11494 8.71779 9.20605 7.9695 9.5313 7.31259C9.85655 6.65569 10.3964 6.12959 11.0615 5.82141C9.30277 6.11453 7.96045 7.63906 7.96045 9.48048C7.96045 10.4654 8.3517 11.4099 9.04812 12.1063C9.74454 12.8028 10.6891 13.194 11.674 13.194C13.5159 13.194 15.0404 11.8517 15.333 10.093C15.0754 10.6494 14.6639 11.1205 14.1471 11.4507C13.6303 11.7808 13.0299 11.9562 12.4167 11.9562Z" fill="white"/>
</g>
<defs>
<clipPath id="clip0_1728_3265">
<rect width="17.825" height="17.825" fill="white" transform="translate(0.533203 0.581909)"/>
</clipPath>
</defs>
</svg>
