<svg width="29" height="30" viewBox="0 0 29 30" fill="none" xmlns="http://www.w3.org/2000/svg">
<rect y="0.636719" width="28.8485" height="28.8485" rx="14.4242" fill="black"/>
<g clip-path="url(#clip0_405_17651)">
<g clip-path="url(#clip1_405_17651)">
<g clip-path="url(#clip2_405_17651)">
<path fill-rule="evenodd" clip-rule="evenodd" d="M12.3564 20.1515C11.9191 20.1515 11.5011 19.9896 11.1919 19.7015L7.69516 16.4434C7.05148 15.8445 7.05148 14.8725 7.69516 14.2727C8.33885 13.6738 9.38209 13.6738 10.0249 14.2727L12.3564 16.4459L18.8239 10.4189C19.4685 9.81999 20.5109 9.81999 21.1545 10.4189C21.7973 11.0187 21.7973 11.9907 21.1545 12.5905L13.5217 19.7015C13.2126 19.9896 12.7937 20.1515 12.3564 20.1515Z" fill="white"/>
</g>
</g>
</g>
<defs>
<clipPath id="clip0_405_17651">
<rect width="11.8788" height="8.38303" fill="white" transform="translate(8.48486 10.8691)"/>
</clipPath>
<clipPath id="clip1_405_17651">
<rect width="11.8788" height="8.38303" fill="white" transform="translate(8.48486 10.8691)"/>
</clipPath>
<clipPath id="clip2_405_17651">
<rect width="14.4242" height="10.1818" fill="white" transform="translate(7.2124 9.96973)"/>
</clipPath>
</defs>
</svg>
