<svg width="16" height="16" viewBox="0 0 16 16" fill="none" xmlns="http://www.w3.org/2000/svg">
<path d="M5.31867 14.6025C5.11552 14.8059 4.87427 14.9674 4.60871 15.0775C4.34314 15.1877 4.05847 15.2444 3.77096 15.2445H0.669922V12.1635C0.669922 11.5832 0.900756 11.0262 1.31113 10.6158M5.31867 14.6025L1.31113 10.6158M5.31867 14.6025L13.3129 6.60504M1.31113 10.6158L9.3134 2.60471L10.4563 1.46016C10.6597 1.25646 10.9013 1.09485 11.1672 0.984556C11.433 0.874264 11.718 0.817457 12.0059 0.817383C12.2938 0.817308 12.5788 0.873968 12.8447 0.984122C13.1107 1.09428 13.3523 1.25576 13.5558 1.45936L14.4583 2.36266C14.8691 2.77346 15.0999 3.33062 15.0999 3.91157C15.0999 4.49253 14.8691 5.04969 14.4583 5.46049L13.3129 6.60504M13.3129 6.60504L9.31259 2.60471" stroke="#575E6F" strokeWidth="1.20226" strokeLinecap="round" strokeLinejoin="round"/>
</svg>
