<svg width="11" height="10" viewBox="0 0 11 10" fill="none" xmlns="http://www.w3.org/2000/svg">
<path d="M9.47364 5.52132L6.25913 8.73345C6.04601 8.94631 5.757 9.06589 5.45565 9.06589C5.1543 9.06589 4.86528 8.94631 4.65216 8.73345L1.43766 5.52188C1.17193 5.25872 0.960854 4.94571 0.816537 4.60082C0.672219 4.25593 0.597506 3.88596 0.596686 3.51215C0.595867 3.13834 0.668958 2.76805 0.811762 2.42253C0.954567 2.07702 1.16427 1.76308 1.42884 1.49876C1.69341 1.23443 2.00763 1.02492 2.35346 0.882244C2.69929 0.73957 3.06992 0.666547 3.44408 0.667365C3.81823 0.668184 4.18854 0.742829 4.53374 0.887014C4.87894 1.0312 5.19224 1.24209 5.45565 1.50757C5.99068 0.986332 6.70971 0.69668 7.45699 0.701358C8.20426 0.706036 8.91961 1.00467 9.44806 1.53256C9.97651 2.06045 10.2755 2.7751 10.2803 3.52169C10.2851 4.26828 9.99527 4.9867 9.47364 5.52132Z" stroke="black" strokeWidth="0.774716" strokeLinecap="round" strokeLinejoin="round"/>
</svg>
