<svg width="17" height="17" viewBox="0 0 17 17" fill="none" xmlns="http://www.w3.org/2000/svg">
<path fill-rule="evenodd" clip-rule="evenodd" d="M16.1394 8.67705C16.1394 8.12491 16.0898 7.59401 15.9978 7.08435H8.66431V10.0963H12.8549C12.6744 11.0696 12.1258 11.8943 11.3011 12.4464V14.4001H13.8176C15.2899 13.0446 16.1394 11.0484 16.1394 8.67705Z" fill="#4285F4"/>
<path fill-rule="evenodd" clip-rule="evenodd" d="M8.66448 16.2865C10.7668 16.2865 12.5294 15.5893 13.8177 14.4L11.3013 12.4463C10.604 12.9135 9.71212 13.1896 8.66448 13.1896C6.63645 13.1896 4.91988 11.8199 4.30758 9.97943H1.70618V11.9968C2.98741 14.5416 5.62067 16.2865 8.66448 16.2865Z" fill="#34A853"/>
<path fill-rule="evenodd" clip-rule="evenodd" d="M4.30741 9.97952C4.15168 9.51233 4.0632 9.01329 4.0632 8.50009C4.0632 7.98688 4.15168 7.48784 4.30741 7.02065V5.00323H1.70601C1.17865 6.05441 0.877808 7.24363 0.877808 8.50009C0.877808 9.75654 1.17865 10.9458 1.70601 11.9969L4.30741 9.97952Z" fill="#FBBC05"/>
<path fill-rule="evenodd" clip-rule="evenodd" d="M8.66448 3.81047C9.80768 3.81047 10.8341 4.20333 11.6411 4.97491L13.8744 2.74159C12.5259 1.48513 10.7633 0.713562 8.66448 0.713562C5.62067 0.713562 2.98741 2.45845 1.70618 5.00322L4.30758 7.02064C4.91988 5.18019 6.63645 3.81047 8.66448 3.81047Z" fill="#EA4335"/>
</svg>
