<svg width="24" height="25" viewBox="0 0 24 25" fill="none" xmlns="http://www.w3.org/2000/svg">
<path d="M12.0048 6.84268C9.02354 6.84268 6.61885 9.24736 6.61885 12.2286C6.61885 15.2099 9.02354 17.6145 12.0048 17.6145C14.986 17.6145 17.3907 15.2099 17.3907 12.2286C17.3907 9.24736 14.986 6.84268 12.0048 6.84268ZM12.0048 15.7302C10.0782 15.7302 8.50322 14.1599 8.50322 12.2286C8.50322 10.2974 10.0735 8.72705 12.0048 8.72705C13.936 8.72705 15.5063 10.2974 15.5063 12.2286C15.5063 14.1599 13.9313 15.7302 12.0048 15.7302ZM18.8673 6.62236C18.8673 7.3208 18.3048 7.87861 17.611 7.87861C16.9126 7.87861 16.3548 7.31611 16.3548 6.62236C16.3548 5.92861 16.9173 5.36611 17.611 5.36611C18.3048 5.36611 18.8673 5.92861 18.8673 6.62236ZM22.4345 7.89736C22.3548 6.21455 21.9704 4.72393 20.7376 3.4958C19.5095 2.26768 18.0188 1.8833 16.336 1.79893C14.6017 1.70049 9.40322 1.70049 7.66885 1.79893C5.99072 1.87861 4.5001 2.26299 3.26729 3.49111C2.03447 4.71924 1.65479 6.20986 1.57041 7.89268C1.47197 9.62705 1.47197 14.8255 1.57041 16.5599C1.6501 18.2427 2.03447 19.7333 3.26729 20.9614C4.5001 22.1896 5.98604 22.5739 7.66885 22.6583C9.40322 22.7567 14.6017 22.7567 16.336 22.6583C18.0188 22.5786 19.5095 22.1942 20.7376 20.9614C21.9657 19.7333 22.3501 18.2427 22.4345 16.5599C22.5329 14.8255 22.5329 9.63174 22.4345 7.89736ZM20.1938 18.4208C19.8282 19.3396 19.1204 20.0474 18.197 20.4177C16.8142 20.9661 13.5329 20.8396 12.0048 20.8396C10.4767 20.8396 7.19072 20.9614 5.8126 20.4177C4.89385 20.052 4.18604 19.3442 3.81572 18.4208C3.26729 17.038 3.39385 13.7567 3.39385 12.2286C3.39385 10.7005 3.27197 7.41455 3.81572 6.03643C4.18135 5.11768 4.88916 4.40986 5.8126 4.03955C7.19541 3.49111 10.4767 3.61768 12.0048 3.61768C13.5329 3.61768 16.8188 3.4958 18.197 4.03955C19.1157 4.40518 19.8235 5.11299 20.1938 6.03643C20.7423 7.41924 20.6157 10.7005 20.6157 12.2286C20.6157 13.7567 20.7423 17.0427 20.1938 18.4208Z" fill="white"/>
</svg>
