<svg width="24" height="25" viewBox="0 0 24 25" fill="none" xmlns="http://www.w3.org/2000/svg">
<path d="M6.20062 21.2334H1.84688V7.21311H6.20062V21.2334ZM4.02141 5.30061C2.62922 5.30061 1.5 4.14748 1.5 2.75529C1.5 2.08657 1.76565 1.44524 2.2385 0.972389C2.71136 0.499534 3.35269 0.233887 4.02141 0.233887C4.69012 0.233887 5.33145 0.499534 5.80431 0.972389C6.27716 1.44524 6.54281 2.08657 6.54281 2.75529C6.54281 4.14748 5.41313 5.30061 4.02141 5.30061ZM22.4953 21.2334H18.1509V14.4084C18.1509 12.7819 18.1181 10.6959 15.8873 10.6959C13.6237 10.6959 13.2769 12.4631 13.2769 14.2912V21.2334H8.92781V7.21311H13.1034V9.12561H13.1644C13.7456 8.02404 15.1655 6.86154 17.2838 6.86154C21.69 6.86154 22.5 9.76311 22.5 13.5319V21.2334H22.4953Z" fill="white"/>
</svg>
