<svg width="31" height="30" viewBox="0 0 31 30" fill="none" xmlns="http://www.w3.org/2000/svg">
<rect y="0.382812" width="31" height="28.9722" rx="7.4767" fill="#F7F7FF"/>
<path d="M15.5005 8.44531C15.9904 8.44536 16.3872 8.84306 16.3872 9.33301V20.4053C16.3872 20.8952 15.9904 21.2919 15.5005 21.292C15.0105 21.292 14.6128 20.8952 14.6128 20.4053V9.33301C14.6128 8.84303 15.0105 8.44531 15.5005 8.44531Z" fill="#6F6C90" stroke="#6F6C90" strokeWidth="0.280376" strokeLinecap="round"/>
<path d="M21.5254 14.0293C21.9882 14.0295 22.3633 14.4053 22.3633 14.8682C22.3632 15.331 21.9882 15.7058 21.5254 15.7061H9.47559C9.01264 15.7061 8.63678 15.3311 8.63672 14.8682C8.63672 14.4052 9.0126 14.0293 9.47559 14.0293H21.5254Z" fill="#6F6C90" stroke="#6F6C90" strokeWidth="0.280376" strokeLinecap="round"/>
</svg>
