<svg width="24" height="25" viewBox="0 0 24 25" fill="none" xmlns="http://www.w3.org/2000/svg">
<path d="M22.9022 6.73686C22.6404 5.75144 21.8694 4.97536 20.8903 4.71198C19.1157 4.2334 11.9999 4.2334 11.9999 4.2334C11.9999 4.2334 4.88403 4.2334 3.1094 4.71198C2.13036 4.9754 1.35928 5.75144 1.09757 6.73686C0.62207 8.52298 0.62207 12.2496 0.62207 12.2496C0.62207 12.2496 0.62207 15.9761 1.09757 17.7623C1.35928 18.7477 2.13036 19.4914 3.1094 19.7548C4.88403 20.2334 11.9999 20.2334 11.9999 20.2334C11.9999 20.2334 19.1157 20.2334 20.8903 19.7548C21.8694 19.4914 22.6404 18.7477 22.9022 17.7623C23.3777 15.9761 23.3777 12.2496 23.3777 12.2496C23.3777 12.2496 23.3777 8.52298 22.9022 6.73686ZM9.67257 15.633V8.86611L15.62 12.2496L9.67257 15.633Z" fill="white"/>
</svg>
