<svg width="19" height="19" viewBox="0 0 19 19" fill="none" xmlns="http://www.w3.org/2000/svg">
<path d="M6.38742 12.2743L11.8784 6.96454M4.41647 8.8676L2.35733 10.8588C1.62918 11.5629 1.21081 12.5272 1.19427 13.5395C1.17773 14.5518 1.56438 15.5292 2.26914 16.2567C2.97391 16.9842 3.93907 17.4022 4.9523 17.4187C5.96553 17.4352 6.94383 17.0489 7.67199 16.3448L9.73112 14.3536M8.53474 4.88525L10.5939 2.89408C11.322 2.18996 12.3003 1.80367 13.3136 1.82019C14.3268 1.83672 15.292 2.2547 15.9967 2.98219C16.7015 3.70968 17.0881 4.68709 17.0716 5.69939C17.0551 6.71169 16.6367 7.67597 15.9085 8.38009L13.8494 10.3713" stroke="black" strokeWidth="1.9087" strokeLinecap="round" strokeLinejoin="round"/>
</svg>
