<svg width="33" height="39" viewBox="0 0 33 39" fill="none" xmlns="http://www.w3.org/2000/svg">
<g clip-path="url(#clip0_63_3026)">
<mask id="mask0_63_3026" style="mask-type:luminance" maskUnits="userSpaceOnUse" x="-6" y="0" width="39" height="39">
<path fill-rule="evenodd" clip-rule="evenodd" d="M33 12.1462C33 11.6832 33.0002 11.2202 32.9973 10.7571C32.995 10.3671 32.9905 9.97715 32.9799 9.58729C32.957 8.73758 32.9069 7.88057 32.7558 7.04033C32.6025 6.18796 32.3522 5.39466 31.9578 4.62021C31.5701 3.859 31.0636 3.16244 30.4593 2.55856C29.8552 1.95468 29.1584 1.44853 28.3969 1.06104C27.6217 0.666547 26.8275 0.416361 25.9742 0.263154C25.1339 0.112267 24.2766 0.0622388 23.4269 0.0392838C23.0368 0.0287293 22.6467 0.0242803 22.2564 0.0218664C21.7932 0.0190266 21.3299 0.0192633 20.8666 0.0192633L15.4877 0H11.4647L6.18093 0.0192633C5.71676 0.0192633 5.2526 0.0190266 4.78844 0.0218664C4.3974 0.0242803 4.00655 0.0287293 3.61565 0.0392838C2.76395 0.0622388 1.90478 0.112314 1.06245 0.263391C0.208006 0.416551 -0.587323 0.666642 -1.36363 1.06085C-2.12672 1.44839 -2.82498 1.95458 -3.43042 2.55856C-4.03577 3.1624 -4.54319 3.85881 -4.93163 4.61987C-5.32711 5.39471 -5.57787 6.18848 -5.7315 7.04132C-5.88276 7.88124 -5.93289 8.73796 -5.95594 9.58729C-5.96644 9.97719 -5.97099 10.3671 -5.97335 10.7571C-5.97619 11.2202 -6 11.7954 -6 12.2585L-5.99986 17.469L-6 21.5351L-5.97596 26.8564C-5.97596 27.32 -5.97615 27.7837 -5.97335 28.2473C-5.97099 28.6379 -5.96644 29.0283 -5.95589 29.4188C-5.93289 30.2696 -5.88267 31.1278 -5.73126 31.9692C-5.57768 32.8227 -5.32697 33.6171 -4.93182 34.3926C-4.54333 35.1549 -4.03582 35.8523 -3.43042 36.4571C-2.82503 37.0618 -2.12696 37.5686 -1.364 37.9567C-0.587228 38.3517 0.20848 38.6022 1.06344 38.7556C1.90539 38.9067 2.76429 38.9568 3.61565 38.9798C4.00655 38.9903 4.39745 38.9948 4.78848 38.9972C5.25265 39 5.71676 38.9999 6.18093 38.9999L11.5124 39H15.5454L20.8666 38.9998C21.3299 38.9998 21.7932 39 22.2564 38.9972C22.6467 38.9948 23.0368 38.9903 23.4269 38.9798C24.277 38.9568 25.1345 38.9066 25.9752 38.7554C26.828 38.602 27.6218 38.3516 28.3966 37.9568C29.1582 37.5688 29.8551 37.0619 30.4593 36.4571C31.0635 35.8524 31.57 35.1551 31.9577 34.3929C32.3523 33.6171 32.6026 32.8223 32.756 31.9682C32.9069 31.1271 32.957 30.2692 32.98 29.4188C32.9905 29.0283 32.995 28.6378 32.9973 28.2473C33.0002 27.7837 33 27.32 33 26.8564C33 26.8564 32.9997 21.6291 32.9997 21.5351V17.4647C32.9997 17.3954 33 12.1462 33 12.1462Z" fill="white"/>
</mask>
<g mask="url(#mask0_63_3026)">
<rect x="-8.74512" y="-2.93446" width="43.2597" height="43.2597" fill="#101010"/>
<g filter="url(#filter0_ii_63_3026)">
<path fill-rule="evenodd" clip-rule="evenodd" d="M33 12.1462C33 11.6832 33.0002 11.2202 32.9973 10.7571C32.995 10.3671 32.9905 9.97715 32.9799 9.58729C32.957 8.73758 32.9069 7.88057 32.7558 7.04033C32.6025 6.18796 32.3522 5.39466 31.9578 4.62021C31.5701 3.859 31.0636 3.16244 30.4593 2.55856C29.8552 1.95468 29.1584 1.44853 28.3969 1.06104C27.6217 0.666547 26.8275 0.416361 25.9742 0.263154C25.1339 0.112267 24.2766 0.0622388 23.4269 0.0392838C23.0368 0.0287293 22.6467 0.0242803 22.2564 0.0218664C21.7932 0.0190266 21.3299 0.0192633 20.8666 0.0192633L15.4877 0H11.4647L6.18093 0.0192633C5.71676 0.0192633 5.2526 0.0190266 4.78844 0.0218664C4.3974 0.0242803 4.00655 0.0287293 3.61565 0.0392838C2.76395 0.0622388 1.90478 0.112314 1.06245 0.263391C0.208006 0.416551 -0.587323 0.666642 -1.36363 1.06085C-2.12672 1.44839 -2.82498 1.95458 -3.43042 2.55856C-4.03577 3.1624 -4.54319 3.85881 -4.93163 4.61987C-5.32711 5.39471 -5.57787 6.18848 -5.7315 7.04132C-5.88276 7.88124 -5.93289 8.73796 -5.95594 9.58729C-5.96644 9.97719 -5.97099 10.3671 -5.97335 10.7571C-5.97619 11.2202 -6 11.7954 -6 12.2585L-5.99986 17.469L-6 21.5351L-5.97596 26.8564C-5.97596 27.32 -5.97615 27.7837 -5.97335 28.2473C-5.97099 28.6379 -5.96644 29.0283 -5.95589 29.4188C-5.93289 30.2696 -5.88267 31.1278 -5.73126 31.9692C-5.57768 32.8227 -5.32697 33.6171 -4.93182 34.3926C-4.54333 35.1549 -4.03582 35.8523 -3.43042 36.4571C-2.82503 37.0618 -2.12696 37.5686 -1.364 37.9567C-0.587228 38.3517 0.20848 38.6022 1.06344 38.7556C1.90539 38.9067 2.76429 38.9568 3.61565 38.9798C4.00655 38.9903 4.39745 38.9948 4.78848 38.9972C5.25265 39 5.71676 38.9999 6.18093 38.9999L11.5124 39H15.5454L20.8666 38.9998C21.3299 38.9998 21.7932 39 22.2564 38.9972C22.6467 38.9948 23.0368 38.9903 23.4269 38.9798C24.277 38.9568 25.1345 38.9066 25.9752 38.7554C26.828 38.602 27.6218 38.3516 28.3966 37.9568C29.1582 37.5688 29.8551 37.0619 30.4593 36.4571C31.0635 35.8524 31.57 35.1551 31.9577 34.3929C32.3523 33.6171 32.6026 32.8223 32.756 31.9682C32.9069 31.1271 32.957 30.2692 32.98 29.4188C32.9905 29.0283 32.995 28.6378 32.9973 28.2473C33.0002 27.7837 33 27.32 33 26.8564C33 26.8564 32.9997 21.6291 32.9997 21.5351V17.4647C32.9997 17.3954 33 12.1462 33 12.1462Z" fill="#04045D"/>
</g>
</g>
<g clip-path="url(#clip1_63_3026)" filter="url(#filter1_dd_63_3026)">
<path d="M5.46875 27.1796V12.9228C5.46875 12.8259 5.51027 12.7705 5.60717 12.7705C5.84247 12.7705 6.06393 12.7705 6.38229 12.7567C6.71449 12.7429 7.06052 12.7429 7.43424 12.729C7.80797 12.7152 8.20937 12.7152 8.63846 12.7013C9.06754 12.6875 9.48279 12.6875 9.89803 12.6875C11.033 12.6875 11.9743 12.8259 12.7494 13.1166C13.4415 13.3519 14.0782 13.7395 14.6041 14.2516C15.0471 14.6945 15.3931 15.2343 15.6146 15.8295C15.8222 16.4109 15.9329 17.0061 15.9329 17.6289C15.9329 18.8193 15.6561 19.802 15.1024 20.5772C14.5488 21.3523 13.7737 21.9336 12.874 22.2658C11.9327 22.6119 10.8946 22.7364 9.75962 22.7364C9.42742 22.7364 9.20596 22.7364 9.06754 22.7226C8.92913 22.7088 8.73535 22.7088 8.47236 22.7088V27.1519C8.4862 27.2488 8.41699 27.3318 8.3201 27.3457H8.26473H5.63485C5.52412 27.3457 5.46875 27.2903 5.46875 27.1657V27.1796ZM8.4862 15.4558V20.1066C8.67998 20.1204 8.85992 20.1342 9.02602 20.1342H9.75962C10.2994 20.1342 10.8393 20.0512 11.3514 19.8851C11.7943 19.7605 12.1819 19.4975 12.4864 19.1515C12.7771 18.8054 12.9155 18.3348 12.9155 17.7258C12.9293 17.2967 12.8186 16.8676 12.5971 16.4939C12.3618 16.134 12.0296 15.8572 11.6282 15.7049C11.1161 15.4973 10.5624 15.4143 9.99492 15.4281C9.63504 15.4281 9.31669 15.4281 9.0537 15.442C8.77687 15.4281 8.58309 15.442 8.4862 15.4558Z" fill="url(#paint0_linear_63_3026)"/>
<path d="M17.9262 16.2725H20.3485C20.4869 16.2725 20.5976 16.3694 20.6392 16.494C20.6807 16.6047 20.7084 16.7155 20.7222 16.84C20.7499 16.9785 20.7776 17.1307 20.7914 17.2691C20.8053 17.4214 20.8191 17.5875 20.8191 17.7674C21.2343 17.283 21.7326 16.8816 22.3001 16.5771C22.9369 16.2172 23.6705 16.0372 24.4041 16.0372C24.5009 16.0234 24.584 16.0926 24.5978 16.1895V16.2449V18.944C24.5978 19.0547 24.5286 19.0962 24.3764 19.0962C23.8781 19.0824 23.3659 19.1239 22.8815 19.2346C22.4801 19.3177 22.0925 19.4423 21.7188 19.6084C21.4558 19.7329 21.2067 19.899 21.0129 20.1205V27.1797C21.0129 27.3181 20.9575 27.3734 20.8329 27.3734H18.1062C17.9954 27.3873 17.8985 27.3181 17.8847 27.2073V27.152V19.4838C17.8847 19.1516 17.8847 18.8055 17.8709 18.4457C17.857 18.0858 17.857 17.7259 17.8432 17.366C17.8432 17.0477 17.8155 16.7432 17.7878 16.4248C17.774 16.3556 17.8155 16.2864 17.8847 16.2725C17.8847 16.2587 17.9124 16.2587 17.9262 16.2725Z" fill="url(#paint1_linear_63_3026)"/>
</g>
</g>
<defs>
<filter id="filter0_ii_63_3026" x="-6" y="-0.946602" width="39" height="40.6092" filterUnits="userSpaceOnUse" color-interpolation-filters="sRGB">
<feFlood flood-opacity="0" result="BackgroundImageFix"/>
<feBlend mode="normal" in="SourceGraphic" in2="BackgroundImageFix" result="shape"/>
<feColorMatrix in="SourceAlpha" type="matrix" values="0 0 0 0 0 0 0 0 0 0 0 0 0 0 0 0 0 0 127 0" result="hardAlpha"/>
<feOffset dy="-0.946602"/>
<feGaussianBlur stdDeviation="0.946602"/>
<feComposite in2="hardAlpha" operator="arithmetic" k2="-1" k3="1"/>
<feColorMatrix type="matrix" values="0 0 0 0 0 0 0 0 0 0 0 0 0 0 0 0 0 0 0.3 0"/>
<feBlend mode="normal" in2="shape" result="effect1_innerShadow_63_3026"/>
<feColorMatrix in="SourceAlpha" type="matrix" values="0 0 0 0 0 0 0 0 0 0 0 0 0 0 0 0 0 0 127 0" result="hardAlpha"/>
<feOffset dy="0.662621"/>
<feGaussianBlur stdDeviation="1.51456"/>
<feComposite in2="hardAlpha" operator="arithmetic" k2="-1" k3="1"/>
<feColorMatrix type="matrix" values="0 0 0 0 1 0 0 0 0 1 0 0 0 0 1 0 0 0 0.15 0"/>
<feBlend mode="normal" in2="effect1_innerShadow_63_3026" result="effect2_innerShadow_63_3026"/>
</filter>
<filter id="filter1_dd_63_3026" x="3.40075" y="11.1365" width="23.2649" height="18.8236" filterUnits="userSpaceOnUse" color-interpolation-filters="sRGB">
<feFlood flood-opacity="0" result="BackgroundImageFix"/>
<feColorMatrix in="SourceAlpha" type="matrix" values="0 0 0 0 0 0 0 0 0 0 0 0 0 0 0 0 0 0 127 0" result="hardAlpha"/>
<feMorphology radius="0.516999" operator="dilate" in="SourceAlpha" result="effect1_dropShadow_63_3026"/>
<feOffset dy="0.516999"/>
<feGaussianBlur stdDeviation="0.775499"/>
<feColorMatrix type="matrix" values="0 0 0 0 0 0 0 0 0 0 0 0 0 0 0 0 0 0 0.15 0"/>
<feBlend mode="normal" in2="BackgroundImageFix" result="effect1_dropShadow_63_3026"/>
<feColorMatrix in="SourceAlpha" type="matrix" values="0 0 0 0 0 0 0 0 0 0 0 0 0 0 0 0 0 0 127 0" result="hardAlpha"/>
<feOffset dy="0.516999"/>
<feGaussianBlur stdDeviation="0.516999"/>
<feColorMatrix type="matrix" values="0 0 0 0 0 0 0 0 0 0 0 0 0 0 0 0 0 0 0.3 0"/>
<feBlend mode="normal" in2="effect1_dropShadow_63_3026" result="effect2_dropShadow_63_3026"/>
<feBlend mode="normal" in="SourceGraphic" in2="effect2_dropShadow_63_3026" result="shape"/>
</filter>
<linearGradient id="paint0_linear_63_3026" x1="10.7008" y1="12.6875" x2="10.7008" y2="27.3457" gradientUnits="userSpaceOnUse">
<stop stop-color="#CBCBFF"/>
<stop offset="1" stop-color="#8989FF"/>
</linearGradient>
<linearGradient id="paint1_linear_63_3026" x1="21.1915" y1="16.0355" x2="21.1915" y2="27.3752" gradientUnits="userSpaceOnUse">
<stop stop-color="#CBCBFF"/>
<stop offset="1" stop-color="#8989FF"/>
</linearGradient>
<clipPath id="clip0_63_3026">
<rect x="-6" width="39" height="39" rx="19.5" fill="white"/>
</clipPath>
<clipPath id="clip1_63_3026">
<rect width="19.129" height="14.6876" fill="white" transform="translate(5.46875 12.6875)"/>
</clipPath>
</defs>
</svg>
