<svg width="41" height="41" viewBox="0 0 41 41" fill="none" xmlns="http://www.w3.org/2000/svg">
<g clip-path="url(#clip0_63_3014)">
<path d="M31.0015 0H9.49027C4.24894 0 0 4.24894 0 9.49027V31.0015C0 36.2429 4.24894 40.4918 9.49027 40.4918H31.0015C36.2429 40.4918 40.4918 36.2429 40.4918 31.0015V9.49027C40.4918 4.24894 36.2429 0 31.0015 0Z" fill="#001E36"/>
<path d="M11.4297 27.5355V13.4798C11.4297 13.3842 11.4707 13.3296 11.5663 13.3296C11.7985 13.3296 12.0171 13.3296 12.3312 13.3159C12.659 13.3022 13.0006 13.3022 13.3694 13.2886C13.7382 13.2749 14.1343 13.2749 14.5578 13.2612C14.9811 13.2476 15.3909 13.2477 15.8007 13.2477C16.9208 13.2477 17.8496 13.3842 18.6147 13.671C19.3004 13.9039 19.9256 14.2866 20.445 14.7911C20.8851 15.2328 21.2251 15.7639 21.4422 16.3483C21.6471 16.922 21.7563 17.5094 21.7563 18.1241C21.7563 19.2988 21.4831 20.2687 20.9368 21.0336C20.3903 21.7985 19.6254 22.3722 18.7376 22.7C17.8087 23.0416 16.7842 23.1645 15.6642 23.1645C15.3364 23.1645 15.1178 23.1645 14.9811 23.1508C14.8445 23.1371 14.6533 23.1371 14.3939 23.1371V27.5218C14.4074 27.6175 14.3392 27.6994 14.2435 27.7131H11.5936C11.4844 27.7131 11.4297 27.6585 11.4297 27.5355ZM14.4074 15.9658V20.5554C14.5988 20.5691 14.7762 20.5828 14.9402 20.5828H15.6642C16.1969 20.5828 16.7296 20.5009 17.235 20.337C17.6722 20.214 18.0545 19.9545 18.3551 19.6129C18.6419 19.2715 18.7786 18.8071 18.7786 18.2061C18.7914 17.7792 18.6824 17.3575 18.4643 16.9903C18.2322 16.6352 17.9043 16.362 17.5082 16.2117C17.0028 16.0068 16.4564 15.9248 15.8964 15.9385C15.5413 15.9385 15.227 15.9385 14.9676 15.9522C14.6943 15.9385 14.5031 15.9522 14.4074 15.9658ZM30.2799 19.7223C29.8701 19.5037 29.4331 19.3535 28.9686 19.2578C28.4631 19.1486 27.9578 19.0802 27.4387 19.0802C27.1655 19.0666 26.8787 19.1076 26.6191 19.1759C26.4416 19.2168 26.2913 19.3125 26.1957 19.449C26.1274 19.5584 26.0864 19.6949 26.0864 19.8178C26.0864 19.9408 26.1411 20.0637 26.223 20.1731C26.346 20.3233 26.5099 20.4462 26.6875 20.5419C27.0042 20.7058 27.3278 20.8562 27.6573 20.9926C28.3949 21.2385 29.1052 21.5799 29.7609 21.9897C30.2117 22.2765 30.5805 22.6591 30.8399 23.1235C31.0585 23.5606 31.1677 24.0386 31.1542 24.5304C31.1677 25.1725 30.9766 25.8144 30.6214 26.3471C30.2404 26.8924 29.7088 27.3149 29.0915 27.5628C28.4222 27.8497 27.6026 28 26.6191 28C25.9908 28 25.3762 27.9453 24.7615 27.8224C24.2797 27.7392 23.8112 27.5922 23.3682 27.3853C23.2725 27.3306 23.2043 27.235 23.2179 27.1257V24.749C23.2179 24.708 23.2316 24.6533 23.2725 24.626C23.3135 24.5988 23.3545 24.6123 23.3955 24.6397C23.9282 24.9539 24.4882 25.1725 25.0893 25.309C25.6083 25.4456 26.1548 25.5139 26.7011 25.5139C27.2202 25.5139 27.589 25.4456 27.8349 25.3227C28.0534 25.227 28.2037 24.9948 28.2037 24.749C28.2037 24.5578 28.0943 24.3802 27.8759 24.2025C27.6573 24.0251 27.2065 23.8202 26.5371 23.5606C25.8506 23.3186 25.1985 22.988 24.5976 22.5771C24.1695 22.2721 23.8148 21.8754 23.5594 21.416C23.3408 20.9789 23.2316 20.5009 23.2453 20.0227C23.2453 19.4354 23.4092 18.8753 23.7096 18.37C24.0511 17.8236 24.5566 17.3865 25.1439 17.1132C25.786 16.7854 26.5918 16.6352 27.5616 16.6352C28.1217 16.6352 28.6954 16.6762 29.2554 16.7581C29.6652 16.8128 30.0613 16.922 30.4301 17.0722C30.4848 17.0859 30.5395 17.1406 30.5668 17.1952C30.5805 17.2499 30.594 17.3045 30.594 17.3591V19.5857C30.594 19.6403 30.5668 19.6949 30.5258 19.7223C30.4028 19.7496 30.3346 19.7496 30.2799 19.7223Z" fill="#31A8FF"/>
</g>
<defs>
<clipPath id="clip0_63_3014">
<rect width="40.4918" height="40.4918" rx="20.2459" fill="white"/>
</clipPath>
</defs>
</svg>
