<svg width="32" height="39" viewBox="0 0 32 39" fill="none" xmlns="http://www.w3.org/2000/svg">
<g clip-path="url(#clip0_63_3007)">
<mask id="mask0_63_3007" style="mask-type:luminance" maskUnits="userSpaceOnUse" x="0" y="0" width="38" height="39">
<path fill-rule="evenodd" clip-rule="evenodd" d="M38 12.3347C38 11.8836 38.0002 11.4325 37.9974 10.9813C37.9952 10.6013 37.9908 10.2213 37.9804 9.84146C37.9581 9.01354 37.9093 8.17851 37.762 7.35981C37.6127 6.5293 37.3689 5.75634 36.9846 5.00174C36.6068 4.26005 36.1133 3.58136 35.5245 2.99296C34.9358 2.40456 34.2569 1.91139 33.515 1.53384C32.7596 1.14946 31.9858 0.905685 31.1544 0.756407C30.3356 0.609388 29.5003 0.560643 28.6724 0.538277C28.2923 0.527993 27.9121 0.523658 27.5319 0.521306C27.0805 0.518539 26.6291 0.518769 26.1777 0.518769L20.9367 0.5H17.0169L11.8686 0.518769C11.4163 0.518769 10.9641 0.518539 10.5118 0.521306C10.1308 0.523658 9.74997 0.527993 9.3691 0.538277C8.53924 0.560643 7.70209 0.609434 6.88136 0.756637C6.04883 0.90587 5.27389 1.14955 4.51749 1.53365C3.77396 1.91125 3.09361 2.40447 2.50369 2.99296C1.91387 3.58131 1.41946 4.25986 1.04098 5.00142C0.655633 5.75639 0.41131 6.5298 0.261617 7.36077C0.11423 8.17915 0.0653927 9.01391 0.0429341 9.84146C0.0326964 10.2214 0.0282692 10.6013 0.0259634 10.9813C0.0231964 11.4325 0 11.993 0 12.4441L0.000138348 17.5211L0 21.4829L0.023427 26.6677C0.023427 27.1195 0.0232425 27.5713 0.0259634 28.023C0.0282692 28.4036 0.0326964 28.784 0.0429803 29.1644C0.0653927 29.9934 0.114322 30.8297 0.261848 31.6495C0.411495 32.4811 0.655772 33.2551 1.0408 34.0107C1.41932 34.7535 1.91382 35.433 2.50369 36.0223C3.09356 36.6115 3.77373 37.1053 4.51712 37.4834C5.27398 37.8683 6.04929 38.1124 6.88233 38.2619C7.70269 38.4091 8.53956 38.4579 9.3691 38.4803C9.74997 38.4906 10.1308 38.495 10.5119 38.4973C10.9641 38.5 11.4163 38.4999 11.8686 38.4999L17.0634 38.5H20.993L26.1777 38.4998C26.6291 38.4998 27.0805 38.5 27.5319 38.4973C27.9121 38.495 28.2923 38.4906 28.6724 38.4803C29.5006 38.4579 30.3362 38.409 31.1553 38.2617C31.9863 38.1122 32.7597 37.8682 33.5146 37.4836C34.2567 37.1055 34.9358 36.6116 35.5245 36.0223C36.1132 35.4331 36.6066 34.7536 36.9844 34.011C37.3689 33.2551 37.6128 32.4807 37.7622 31.6485C37.9093 30.829 37.9581 29.9931 37.9805 29.1644C37.9908 28.784 37.9952 28.4035 37.9974 28.023C38.0002 27.5713 38 27.1195 38 26.6677C38 26.6677 37.9997 21.5745 37.9997 21.4829V17.5169C37.9997 17.4493 38 12.3347 38 12.3347Z" fill="white"/>
</mask>
<g mask="url(#mask0_63_3007)">
<rect x="-2.6748" y="-2.35924" width="42.1505" height="42.1505" fill="#101010"/>
</g>
<g clip-path="url(#clip1_63_3007)">
<mask id="mask1_63_3007" style="mask-type:alpha" maskUnits="userSpaceOnUse" x="9" y="10" width="20" height="20">
<path d="M22.806 29.4531C23.1103 29.5717 23.4573 29.5641 23.7645 29.4163L27.7423 27.5023C28.1602 27.3012 28.426 26.8781 28.426 26.414V13.4357C28.426 12.9716 28.1602 12.5486 27.7423 12.3474L23.7645 10.4333C23.3614 10.2394 22.8896 10.2869 22.5359 10.5441C22.4853 10.5808 22.4372 10.6218 22.392 10.6671L14.777 17.6143L11.4601 15.0965C11.1513 14.8621 10.7194 14.8813 10.4327 15.1422L9.36881 16.1099C9.01803 16.429 9.01763 16.9809 9.36795 17.3005L12.2445 19.9248L9.36795 22.5491C9.01763 22.8688 9.01803 23.4206 9.36881 23.7397L10.4327 24.7074C10.7194 24.9683 11.1513 24.9875 11.4601 24.7531L14.777 22.2353L22.392 29.1826C22.5125 29.3031 22.6539 29.3939 22.806 29.4531ZM23.5988 15.5388L17.8208 19.9248L23.5988 24.3108V15.5388Z" fill="white"/>
</mask>
<g mask="url(#mask1_63_3007)">
<path d="M27.754 12.3504L23.7732 10.4337C23.3124 10.2118 22.7617 10.3054 22.4001 10.667L9.3681 22.5491C9.01758 22.8688 9.01798 23.4206 9.36897 23.7397L10.4335 24.7074C10.7204 24.9683 11.1526 24.9875 11.4615 24.7531L27.155 12.8477C27.6815 12.4482 28.4377 12.8238 28.4377 13.4846V13.4384C28.4377 12.9745 28.172 12.5516 27.754 12.3504Z" fill="#0065A9"/>
<path d="M27.754 27.4992L23.7732 29.4159C23.3124 29.6377 22.7617 29.5442 22.4001 29.1826L9.3681 17.3005C9.01758 16.9809 9.01798 16.429 9.36897 16.1099L10.4335 15.1422C10.7204 14.8813 11.1526 14.8621 11.4615 15.0965L27.155 27.0019C27.6815 27.4013 28.4377 27.0259 28.4377 26.365V26.4112C28.4377 26.8751 28.172 27.2979 27.754 27.4992Z" fill="#007ACC"/>
<path d="M23.7605 29.4175C23.2996 29.6391 22.7489 29.5455 22.3872 29.1838C22.8328 29.6294 23.5947 29.3138 23.5947 28.6836V11.1684C23.5947 10.5382 22.8328 10.2226 22.3872 10.6683C22.7489 10.3066 23.2996 10.2129 23.7605 10.4345L27.7407 12.3486C28.1589 12.5498 28.4249 12.9728 28.4249 13.4369V26.4152C28.4249 26.8793 28.1589 27.3023 27.7407 27.5035L23.7605 29.4175Z" fill="#1F9CF0"/>
<path d="M22.806 29.453C23.1103 29.5715 23.4573 29.5639 23.7644 29.4162L27.7422 27.5021C28.1602 27.3009 28.426 26.8779 28.426 26.4139V13.4355C28.426 12.9714 28.1602 12.5484 27.7423 12.3473L23.7644 10.4332C23.3614 10.2392 22.8896 10.2867 22.5358 10.5439C22.4853 10.5807 22.4372 10.6217 22.392 10.6669L14.777 17.6142L11.4601 15.0964C11.1513 14.862 10.7194 14.8812 10.4327 15.142L9.36881 16.1098C9.01803 16.4289 9.01763 16.9807 9.36795 17.3003L12.2445 19.9246L9.36795 22.549C9.01763 22.8686 9.01803 23.4205 9.36881 23.7395L10.4327 24.7072C10.7194 24.9681 11.1513 24.9873 11.4601 24.753L14.777 22.2351L22.392 29.1824C22.5124 29.303 22.6539 29.3938 22.806 29.453ZM23.5988 15.5387L17.8208 19.9246L23.5988 24.3106V15.5387Z" fill="url(#paint0_linear_63_3007)" fill-opacity="0.25"/>
</g>
</g>
</g>
<defs>
<linearGradient id="paint0_linear_63_3007" x1="18.7658" y1="10.3142" x2="18.7658" y2="29.5351" gradientUnits="userSpaceOnUse">
<stop stop-color="white"/>
<stop offset="1" stop-color="white" stop-opacity="0"/>
</linearGradient>
<clipPath id="clip0_63_3007">
<rect y="0.5" width="38" height="38" rx="19" fill="white"/>
</clipPath>
<clipPath id="clip1_63_3007">
<rect width="19.396" height="19.2445" fill="white" transform="translate(9.10547 10.3143)"/>
</clipPath>
</defs>
</svg>
