<svg width="40" height="40" viewBox="0 0 40 40" fill="none" xmlns="http://www.w3.org/2000/svg">
<g clip-path="url(#clip0_63_3018)">
<mask id="mask0_63_3018" style="mask-type:luminance" maskUnits="userSpaceOnUse" x="0" y="0" width="40" height="40">
<path fill-rule="evenodd" clip-rule="evenodd" d="M40 12.4576C40 11.9828 40.0002 11.5079 39.9973 11.033C39.9949 10.6329 39.9903 10.233 39.9794 9.83312C39.9559 8.96162 39.9045 8.08264 39.7495 7.22085C39.5923 6.34663 39.3356 5.53299 38.9311 4.73867C38.5335 3.95795 38.014 3.24353 37.3942 2.62417C36.7745 2.0048 36.0599 1.48567 35.2789 1.08825C34.4838 0.683638 33.6693 0.427037 32.7941 0.269902C31.9322 0.115145 31.053 0.0638347 30.1815 0.0402911C29.7813 0.0294659 29.3812 0.0249028 28.9809 0.0224271C28.5058 0.0195145 28.0307 0.0197572 27.5555 0.0197572L22.0387 0H17.9125L12.4933 0.0197572C12.0172 0.0197572 11.5411 0.0195145 11.0651 0.0224271C10.664 0.0249028 10.2631 0.0294659 9.86221 0.0402911C8.98867 0.0638347 8.10746 0.115194 7.24354 0.270145C6.36719 0.427231 5.55146 0.683735 4.75526 1.08805C3.97259 1.48553 3.25643 2.0047 2.63547 2.62417C2.0146 3.24348 1.49416 3.95775 1.09577 4.73833C0.69014 5.53304 0.432958 6.34716 0.275386 7.22187C0.120242 8.08332 0.0688344 8.96201 0.0451938 9.83312C0.0344172 10.233 0.0297571 10.633 0.0273299 11.033C0.0244173 11.5079 0 12.0979 0 12.5728L0.00014563 17.9169L0 22.0873L0.02466 27.545C0.02466 28.0205 0.0244658 28.4961 0.0273299 28.9716C0.0297571 29.3722 0.0344172 29.7727 0.0452424 30.1731C0.0688344 31.0457 0.120339 31.926 0.275629 32.7889C0.433152 33.6643 0.690286 34.4791 1.09557 35.2744C1.49402 36.0563 2.01455 36.7716 2.63547 37.3919C3.25638 38.0121 3.97235 38.5319 4.75487 38.9299C5.55156 39.335 6.36767 39.592 7.24456 39.7493C8.1081 39.9043 8.98901 39.9557 9.86221 39.9793C10.2631 39.9901 10.664 39.9947 11.0651 39.9971C11.5412 40 12.0172 39.9999 12.4933 39.9999L17.9615 40H22.0979L27.5555 39.9998C28.0307 39.9998 28.5058 40 28.9809 39.9971C29.3812 39.9947 29.7813 39.9901 30.1815 39.9793C31.0533 39.9557 31.9328 39.9042 32.7951 39.7491C33.6698 39.5918 34.4839 39.335 35.2786 38.9301C36.0597 38.5321 36.7745 38.0122 37.3942 37.3919C38.0139 36.7717 38.5333 36.0565 38.931 35.2748C39.3357 34.479 39.5924 33.6639 39.7497 32.7879C39.9046 31.9253 39.9559 31.0454 39.9795 30.1731C39.9903 29.7726 39.9949 29.3721 39.9973 28.9716C40.0002 28.4961 40 28.0205 40 27.545C40 27.545 39.9997 22.1837 39.9997 22.0873V17.9126C39.9997 17.8414 40 12.4576 40 12.4576Z" fill="white"/>
</mask>
<g mask="url(#mask0_63_3018)">
<rect x="-2.81543" y="-3.0097" width="44.3689" height="44.3689" fill="#101010"/>
<g filter="url(#filter0_ii_63_3018)">
<path fill-rule="evenodd" clip-rule="evenodd" d="M40 12.4576C40 11.9828 40.0002 11.5079 39.9973 11.033C39.9949 10.6329 39.9903 10.233 39.9794 9.83312C39.9559 8.96162 39.9045 8.08264 39.7495 7.22085C39.5923 6.34663 39.3356 5.53299 38.9311 4.73867C38.5335 3.95795 38.014 3.24353 37.3942 2.62417C36.7745 2.0048 36.0599 1.48567 35.2789 1.08825C34.4838 0.683638 33.6693 0.427037 32.7941 0.269902C31.9322 0.115145 31.053 0.0638347 30.1815 0.0402911C29.7813 0.0294659 29.3812 0.0249028 28.9809 0.0224271C28.5058 0.0195145 28.0307 0.0197572 27.5555 0.0197572L22.0387 0H17.9125L12.4933 0.0197572C12.0172 0.0197572 11.5411 0.0195145 11.0651 0.0224271C10.664 0.0249028 10.2631 0.0294659 9.86221 0.0402911C8.98867 0.0638347 8.10746 0.115194 7.24354 0.270145C6.36719 0.427231 5.55146 0.683735 4.75526 1.08805C3.97259 1.48553 3.25643 2.0047 2.63547 2.62417C2.0146 3.24348 1.49416 3.95775 1.09577 4.73833C0.69014 5.53304 0.432958 6.34716 0.275386 7.22187C0.120242 8.08332 0.0688344 8.96201 0.0451938 9.83312C0.0344172 10.233 0.0297571 10.633 0.0273299 11.033C0.0244173 11.5079 0 12.0979 0 12.5728L0.00014563 17.9169L0 22.0873L0.02466 27.545C0.02466 28.0205 0.0244658 28.4961 0.0273299 28.9716C0.0297571 29.3722 0.0344172 29.7727 0.0452424 30.1731C0.0688344 31.0457 0.120339 31.926 0.275629 32.7889C0.433152 33.6643 0.690286 34.4791 1.09557 35.2744C1.49402 36.0563 2.01455 36.7716 2.63547 37.3919C3.25638 38.0121 3.97235 38.5319 4.75487 38.9299C5.55156 39.335 6.36767 39.592 7.24456 39.7493C8.1081 39.9043 8.98901 39.9557 9.86221 39.9793C10.2631 39.9901 10.664 39.9947 11.0651 39.9971C11.5412 40 12.0172 39.9999 12.4933 39.9999L17.9615 40H22.0979L27.5555 39.9998C28.0307 39.9998 28.5058 40 28.9809 39.9971C29.3812 39.9947 29.7813 39.9901 30.1815 39.9793C31.0533 39.9557 31.9328 39.9042 32.7951 39.7491C33.6698 39.5918 34.4839 39.335 35.2786 38.9301C36.0597 38.5321 36.7745 38.0122 37.3942 37.3919C38.0139 36.7717 38.5333 36.0565 38.931 35.2748C39.3357 34.479 39.5924 33.6639 39.7497 32.7879C39.9046 31.9253 39.9559 31.0454 39.9795 30.1731C39.9903 29.7726 39.9949 29.3721 39.9973 28.9716C40.0002 28.4961 40 28.0205 40 27.545C40 27.545 39.9997 22.1837 39.9997 22.0873V17.9126C39.9997 17.8414 40 12.4576 40 12.4576Z" fill="url(#paint0_linear_63_3018)" fill-opacity="0.01"/>
</g>
</g>
<g clip-path="url(#clip1_63_3018)">
<path d="M22.1773 18.6671L28.6932 11.25H27.1497L21.4896 17.6888L16.9722 11.25H11.7607L18.5933 20.9876L11.7607 28.7645H13.3042L19.2776 21.9635L24.0492 28.7645H29.2607M13.8613 12.3898H16.2326L27.1485 27.6807H24.7767" fill="url(#paint1_linear_63_3018)"/>
</g>
</g>
<defs>
<filter id="filter0_ii_63_3018" x="0" y="-0.970874" width="40" height="41.6505" filterUnits="userSpaceOnUse" color-interpolation-filters="sRGB">
<feFlood flood-opacity="0" result="BackgroundImageFix"/>
<feBlend mode="normal" in="SourceGraphic" in2="BackgroundImageFix" result="shape"/>
<feColorMatrix in="SourceAlpha" type="matrix" values="0 0 0 0 0 0 0 0 0 0 0 0 0 0 0 0 0 0 127 0" result="hardAlpha"/>
<feOffset dy="-0.970874"/>
<feGaussianBlur stdDeviation="0.970874"/>
<feComposite in2="hardAlpha" operator="arithmetic" k2="-1" k3="1"/>
<feColorMatrix type="matrix" values="0 0 0 0 0 0 0 0 0 0 0 0 0 0 0 0 0 0 0.3 0"/>
<feBlend mode="normal" in2="shape" result="effect1_innerShadow_63_3018"/>
<feColorMatrix in="SourceAlpha" type="matrix" values="0 0 0 0 0 0 0 0 0 0 0 0 0 0 0 0 0 0 127 0" result="hardAlpha"/>
<feOffset dy="0.679612"/>
<feGaussianBlur stdDeviation="1.5534"/>
<feComposite in2="hardAlpha" operator="arithmetic" k2="-1" k3="1"/>
<feColorMatrix type="matrix" values="0 0 0 0 1 0 0 0 0 1 0 0 0 0 1 0 0 0 0.15 0"/>
<feBlend mode="normal" in2="effect1_innerShadow_63_3018" result="effect2_innerShadow_63_3018"/>
</filter>
<linearGradient id="paint0_linear_63_3018" x1="-13.6476" y1="0" x2="-13.6476" y2="67.2952" gradientUnits="userSpaceOnUse">
<stop stop-color="white"/>
<stop offset="0.489516" stop-color="#EFEFEF"/>
<stop offset="1" stop-color="#C0C0C0"/>
</linearGradient>
<linearGradient id="paint1_linear_63_3018" x1="20.5107" y1="11.25" x2="20.5107" y2="28.7645" gradientUnits="userSpaceOnUse">
<stop stop-color="white"/>
<stop offset="1" stop-color="#464646" stop-opacity="0.98"/>
</linearGradient>
<clipPath id="clip0_63_3018">
<rect width="40" height="40" rx="20" fill="white"/>
</clipPath>
<clipPath id="clip1_63_3018">
<rect width="17.5" height="17.5146" fill="white" transform="translate(11.7607 11.25)"/>
</clipPath>
</defs>
</svg>
